<svg xmlns="http://www.w3.org/2000/svg" height="315" viewBox="0 0 400 315" width="400" version="1.1" y="0px" x="0px"><path fill="#fff" d="m249.13 116.69h16.25l34.766 81.629h-18.517l-7.5579-18.14h-34.011l-7.5579 18.14h-17.761zm18.895 47.617-10.581-26.076-10.581 26.076z"/><g stroke-width=".99287" fill="#fff" transform="matrix(1.0072 0 0 1.0072 -162.63 -37.192)"><path d="m320.5 230.5h-112.8l-4.1 13.5h30.1l5.7 18.6h49.4l5.8-18.6h30z"/><path d="m226.1 154.8c-4.2 5.8-5.9 12.8-4.7 19.8 1.1 7 4.9 13.2 10.7 17.4l27 19.6c1.4 1 2.4 2.6 2.7 4.4s-0.1 3.5-1.2 5l4.1 2.9 14.3-19.7c3.3-4.6 5.1-10 5.1-15.6 0-1.4-0.1-2.8-0.3-4.2-1.1-7-4.9-13.2-10.7-17.4l-27-19.6c-1.4-1.1-2.4-2.6-2.7-4.4-0.1-0.4-0.1-0.7-0.1-1.1 0-1.4 0.4-2.8 1.3-3.9l-4.1-2.9z"/><path d="m242.4 75.9c-4.8 6.7-7.4 14.5-7.4 22.6 0 2 0.2 4.1 0.5 6.2 1.6 10.2 7.1 19.2 15.5 25.2l33.9 24.6c4.5 3.2 7.4 8 8.3 13.5 0.2 1.1 0.3 2.2 0.3 3.3 0 4.3-1.4 8.6-4 12.1l3.3 2.4 26.7-37c6.1-8.4 8.5-18.6 6.9-28.8s-7.1-19.2-15.5-25.2l-41-29.8c-2.6-1.9-4.3-4.6-4.8-7.8-0.5-3.1 0.3-6.3 2.1-8.9l-3.2-2.3z"/><path d="m173 273.9h31c7.6 0 13.6 2.1 17.4 5.9 3 3 4.6 6.8 4.6 11.3v0.2c0 7.5-4 11.7-8.8 14.4 7.7 3 12.5 7.4 12.5 16.4v0.2c0 12.2-9.9 18.3-24.9 18.3h-31.8zm27.8 26.9c6.5 0 10.6-2.1 10.6-7v-0.2c0-4.4-3.4-6.8-9.6-6.8h-14.5v14.1h13.5zm3.9 26.9c6.5 0 10.4-2.3 10.4-7.2v-0.2c0-4.5-3.3-7.2-10.8-7.2h-16.9v14.7h17.3z"/><path d="m236 273.9h30.9c7.6 0 13.6 2.1 17.4 5.9 3 3 4.6 6.8 4.6 11.3v0.2c0 7.5-4 11.7-8.8 14.4 7.7 3 12.5 7.4 12.5 16.4v0.2c0 12.2-9.9 18.3-24.9 18.3h-31.7zm27.8 26.9c6.5 0 10.6-2.1 10.6-7v-0.2c0-4.4-3.4-6.8-9.6-6.8h-14.5v14.1h13.5zm3.9 26.9c6.5 0 10.4-2.3 10.4-7.2v-0.2c0-4.5-3.3-7.2-10.8-7.2h-16.9v14.7h17.3z"/><path d="m299 273.9h30.9c7.6 0 13.6 2.1 17.4 5.9 3 3 4.6 6.8 4.6 11.3v0.2c0 7.5-4 11.7-8.8 14.4 7.7 3 12.5 7.4 12.5 16.4v0.2c0 12.2-9.9 18.3-24.9 18.3h-31.7zm27.8 26.9c6.5 0 10.6-2.1 10.6-7v-0.2c0-4.4-3.4-6.8-9.6-6.8h-14.5v14.1h13.5zm3.9 26.9c6.5 0 10.4-2.3 10.4-7.2v-0.2c0-4.5-3.3-7.2-10.8-7.2h-16.9v14.7h17.3z"/></g><text style="word-spacing:0px;letter-spacing:0px" xml:space="preserve" transform="scale(.99998 1)" line-height="1.25" font-size="112.15px" y="192.65358" x="306.31537" font-family="sans-serif" fill="#ffffff"><tspan font-family="sans-serif" font-weight="bold" y="192.65358" x="306.31537" fill="#ffffff">+</tspan></text></svg>
