<svg xmlns="http://www.w3.org/2000/svg" height="300mm" width="300mm" version="1.1" viewBox="0 0 300 300"><g stroke-width=".97442" transform="translate(0,3)"><g transform="matrix(.072391 0 0 -.072396 -29.936 1394.8)"><path d="m3991.9 16300c-16.71-15.7-34.52-31.1-53.27-46-170.99-136.6-407.29-229-629.22-218.6h-1939.6c-164.96 0-305.65 46.9-422.73 140.6-6.318 5.1-12.458 10.2-18.404 15.3l-33.161-70.8c-37.029-79.1-61.803-162.9 0-224.7l224.85-224.9c61.81-61.8 144.98-35.7 224.78 0l282.56 126.5c138.27-84.4 289.65-149.5 450.36-191.5l108.17-283.5c31.17-81.7 71.54-159 158.93-159h317.99c87.4 0 129.14 76.8 158.94 159l102.2 282c157.03 40.3 305.15 102.8 440.96 183.8l260.85-116.8c79.78-35.8 162.94-61.8 224.74 0l224.87 224.8c61.77 61.8 37.03 145.6 0 224.8l-83.78 179" fill-rule="evenodd" fill="#00a0e8"/></g><g transform="matrix(.081068 0 0 -.081073 -29.963 1394.8)"><path d="m3501.6 15946c-104.52 42.1-252.28 74.2-519.81 87.8h-684.1v48.6h-216.48v50h196.58c8.11-8.7 19.97-14.1 32.36-14.1h108.43c24.05 0 44.3 20.3 44.3 44.3v25.4c0 24-19.92 44.2-44.3 44.2h-108.43c-12.75 0-24.25-5.4-32.36-14h-197.1c-10.05 82.1-129.65 82.1-139.69 0h-193.53c-8.1 8.6-19.6 14-32.29 14h-108.42c-24.41 0-44.3-19.9-44.3-44.3v-25.4c0-24.4 20.04-44.3 44.3-44.3h108.42c12.63 0 24.34 5.5 32.43 14.2h192.88v-50h-216.45v-56h-585.97v-457.5h-48.2v-107.2h515.92v107.2h-48.24v63.1h166.49v-58.9h573.65v32.1h657.49c218.38 0 405.82-62.4 561.9-187 129.76-103.7 205.41-225.3 227.2-364.9l183.69 70.1c72.92 27.8 141.92 63.9 141.92 141.9l0.01 283.9c13.36 87.7-465.8 355.6-568.27 396.8" fill-rule="evenodd" fill="#006cb6"/></g><g transform="matrix(.078365 0 0 -.078370 -29.963 1394.8)"><path d="m2699.1 15708h-1163.5c-227 0-420.91 64.5-581.82 193.5-140.2 112.3-219.31 245.1-237.34 398.2l-187.21-67.8c-75.912-27.6-146.84-66.1-146.84-146.9v-293.7c0-183.1 521.58-427 704.57-481.7 106.64-31.9 234.86-50.5 429.81-50.5l1182.4-2.3v-95h305.03v640.6h-305.03v-94.4" fill-rule="evenodd" fill="#00a0e8"/></g><g transform="matrix(.085747 0 0 -.085753 -29.936 1394.8)"><path d="m3229.8 15894c-52.16 52.2-122.89 31.2-189.74 0l-225.57-105.5c-107.32 60.8-223.27 108.2-345.64 139.7l-86.27 238c-25.17 69.4-60.4 134.2-134.18 134.2h-268.47c-73.78 0-107.82-65.3-134.18-134.2l-91.39-239.4c-125.72-32.8-244.61-82.4-354.23-146.2l-243.16 113.8c-66.88 31.2-137.63 52.2-189.77 0l-189.83-189.8c-52.183-52.2-30.158-122.4 0-189.8l67.355-150.4c8.668 7.6 17.64 15.2 26.945 22.6 147.06 118.3 324.28 177.3 531.71 177.3h1637.5c135.33 0 251.99-37.9 349.99-114.1l28.78 64.2c30.19 67.4 52.15 137.6 0 189.8l-189.83 189.8" fill-rule="evenodd" fill="#006cb6"/></g></g></svg>
