<?xml version="1.0" encoding="UTF-8" standalone="no"?>
<svg
   xmlns:dc="http://purl.org/dc/elements/1.1/"
   xmlns:cc="http://creativecommons.org/ns#"
   xmlns:rdf="http://www.w3.org/1999/02/22-rdf-syntax-ns#"
   xmlns:svg="http://www.w3.org/2000/svg"
   xmlns="http://www.w3.org/2000/svg"
   xmlns:sodipodi="http://sodipodi.sourceforge.net/DTD/sodipodi-0.dtd"
   xmlns:inkscape="http://www.inkscape.org/namespaces/inkscape"
   version="1.1"
   id="Layer_1"
   x="0px"
   y="0px"
   width="400"
   height="315"
   viewBox="0 0 400 315"
   xml:space="preserve"
   sodipodi:docname="bbb.svg"
   inkscape:version="0.92.1 r15371"><defs
     id="defs65" /><sodipodi:namedview
     pagecolor="#ffffff"
     bordercolor="#666666"
     borderopacity="1"
     objecttolerance="10"
     gridtolerance="10"
     guidetolerance="10"
     inkscape:pageopacity="0"
     inkscape:pageshadow="2"
     inkscape:window-width="1920"
     inkscape:window-height="1036"
     id="namedview63"
     showgrid="false"
     inkscape:zoom="1.1976371"
     inkscape:cx="155.98609"
     inkscape:cy="273.13782"
     inkscape:window-x="1080"
     inkscape:window-y="44"
     inkscape:window-maximized="1"
     inkscape:current-layer="Layer_1"
     inkscape:pagecheckerboard="true" /><path
     d="m 252.1529,114.17129 h 17.25051 l 36.90805,86.65741 H 286.6539 l -8.02349,-19.2572 h -36.10569 l -8.02349,19.2572 h -18.85518 z m 20.05875,50.55014 -11.2329,-27.68222 -11.23288,27.68222 z"
     id="path8"
     inkscape:connector-curvature="0"
     style="fill:#ffffff;stroke-width:1" /><g
     id="g58"
     transform="matrix(1.0692004,0,0,1.0692464,-184.97167,-49.185336)"
     style="stroke-width:0.93525821"><path
       d="M 320.5,230.5 H 207.7 l -4.1,13.5 h 30.1 l 5.7,18.6 h 49.4 l 5.8,-18.6 h 30 z"
       id="path44"
       inkscape:connector-curvature="0"
       style="fill:#ffffff;stroke-width:0.93525821" /><path
       d="m 226.1,154.8 c -4.2,5.8 -5.9,12.8 -4.7,19.8 1.1,7 4.9,13.2 10.7,17.4 l 27,19.6 c 1.4,1 2.4,2.6 2.7,4.4 0.3,1.8 -0.1,3.5 -1.2,5 l 4.1,2.9 14.3,-19.7 c 3.3,-4.6 5.1,-10 5.1,-15.6 0,-1.4 -0.1,-2.8 -0.3,-4.2 -1.1,-7 -4.9,-13.2 -10.7,-17.4 l -27,-19.6 c -1.4,-1.1 -2.4,-2.6 -2.7,-4.4 -0.1,-0.4 -0.1,-0.7 -0.1,-1.1 0,-1.4 0.4,-2.8 1.3,-3.9 l -4.1,-2.9 z"
       id="path46"
       inkscape:connector-curvature="0"
       style="fill:#ffffff;stroke-width:0.93525821" /><path
       d="m 242.4,75.9 c -4.8,6.7 -7.4,14.5 -7.4,22.6 0,2 0.2,4.1 0.5,6.2 1.6,10.2 7.1,19.2 15.5,25.2 l 33.9,24.6 c 4.5,3.2 7.4,8 8.3,13.5 0.2,1.1 0.3,2.2 0.3,3.3 0,4.3 -1.4,8.6 -4,12.1 l 3.3,2.4 26.7,-37 c 6.1,-8.4 8.5,-18.6 6.9,-28.8 -1.6,-10.2 -7.1,-19.2 -15.5,-25.2 L 269.9,65 c -2.6,-1.9 -4.3,-4.6 -4.8,-7.8 -0.5,-3.1 0.3,-6.3 2.1,-8.9 L 264,46 Z"
       id="path48"
       inkscape:connector-curvature="0"
       style="fill:#ffffff;stroke-width:0.93525821" /><g
       id="g56"
       style="stroke-width:0.93525821"><path
         d="m 173,273.9 h 31 c 7.6,0 13.6,2.1 17.4,5.9 3,3 4.6,6.8 4.6,11.3 v 0.2 c 0,7.5 -4,11.7 -8.8,14.4 7.7,3 12.5,7.4 12.5,16.4 v 0.2 c 0,12.2 -9.9,18.3 -24.9,18.3 H 173 Z m 27.8,26.9 c 6.5,0 10.6,-2.1 10.6,-7 v -0.2 c 0,-4.4 -3.4,-6.8 -9.6,-6.8 h -14.5 v 14.1 h 13.5 z m 3.9,26.9 c 6.5,0 10.4,-2.3 10.4,-7.2 v -0.2 c 0,-4.5 -3.3,-7.2 -10.8,-7.2 h -16.9 v 14.7 h 17.3 z"
         id="path50"
         inkscape:connector-curvature="0"
         style="fill:#ffffff;stroke-width:0.93525821" /><path
         d="m 236,273.9 h 30.9 c 7.6,0 13.6,2.1 17.4,5.9 3,3 4.6,6.8 4.6,11.3 v 0.2 c 0,7.5 -4,11.7 -8.8,14.4 7.7,3 12.5,7.4 12.5,16.4 v 0.2 c 0,12.2 -9.9,18.3 -24.9,18.3 H 236 Z m 27.8,26.9 c 6.5,0 10.6,-2.1 10.6,-7 v -0.2 c 0,-4.4 -3.4,-6.8 -9.6,-6.8 h -14.5 v 14.1 h 13.5 z m 3.9,26.9 c 6.5,0 10.4,-2.3 10.4,-7.2 v -0.2 c 0,-4.5 -3.3,-7.2 -10.8,-7.2 h -16.9 v 14.7 h 17.3 z"
         id="path52"
         inkscape:connector-curvature="0"
         style="fill:#ffffff;stroke-width:0.93525821" /><path
         d="m 299,273.9 h 30.9 c 7.6,0 13.6,2.1 17.4,5.9 3,3 4.6,6.8 4.6,11.3 v 0.2 c 0,7.5 -4,11.7 -8.8,14.4 7.7,3 12.5,7.4 12.5,16.4 v 0.2 c 0,12.2 -9.9,18.3 -24.9,18.3 H 299 Z m 27.8,26.9 c 6.5,0 10.6,-2.1 10.6,-7 v -0.2 c 0,-4.4 -3.4,-6.8 -9.6,-6.8 h -14.5 v 14.1 h 13.5 z m 3.9,26.9 c 6.5,0 10.4,-2.3 10.4,-7.2 v -0.2 c 0,-4.5 -3.3,-7.2 -10.8,-7.2 h -16.9 v 14.7 h 17.3 z"
         id="path54"
         inkscape:connector-curvature="0"
         style="fill:#ffffff;stroke-width:0.93525821" /></g></g><metadata
     id="metadata60"><rdf:RDF><rdf:Description
         about="https://iconscout.com/legal#licenses"
         dc:title="bbb"
         dc:description="bbb"
         dc:publisher="Iconscout"
         dc:date="2018-03-26"
         dc:format="image/svg+xml"
         dc:language="en"><dc:creator><rdf:Bag><rdf:li>Roundicons.com</rdf:li></rdf:Bag></dc:creator></rdf:Description><cc:Work
         rdf:about=""><dc:format>image/svg+xml</dc:format><dc:type
           rdf:resource="http://purl.org/dc/dcmitype/StillImage" /><dc:title></dc:title></cc:Work></rdf:RDF></metadata><text
     xml:space="preserve"
     style="font-style:normal;font-weight:normal;font-size:119.06053162px;line-height:1.25;font-family:sans-serif;letter-spacing:0px;word-spacing:0px;fill:#ffffff;fill-opacity:1;stroke:none;stroke-width:1"
     x="312.8642"
     y="194.81927"
     id="text4544"
     transform="scale(0.99997849,1.0000215)"><tspan
       sodipodi:role="line"
       id="tspan4542"
       x="312.8642"
       y="194.81927"
       style="font-style:normal;font-variant:normal;font-weight:bold;font-stretch:normal;font-family:sans-serif;-inkscape-font-specification:'sans-serif Bold';fill:#ffffff;stroke-width:1">+</tspan></text>
</svg>