<?xml version="1.0" encoding="UTF-8" standalone="no"?>
<svg
   xmlns:dc="http://purl.org/dc/elements/1.1/"
   xmlns:cc="http://creativecommons.org/ns#"
   xmlns:rdf="http://www.w3.org/1999/02/22-rdf-syntax-ns#"
   xmlns:svg="http://www.w3.org/2000/svg"
   xmlns="http://www.w3.org/2000/svg"
   xmlns:sodipodi="http://sodipodi.sourceforge.net/DTD/sodipodi-0.dtd"
   xmlns:inkscape="http://www.inkscape.org/namespaces/inkscape"
   width="2500"
   height="2500"
   viewBox="0 0 999.937 999.937"
   version="1.1"
   id="svg4"
   sodipodi:docname="github.svg"
   inkscape:version="0.92.1 r15371">
  <metadata
     id="metadata10">
    <rdf:RDF>
      <cc:Work
         rdf:about="">
        <dc:format>image/svg+xml</dc:format>
        <dc:type
           rdf:resource="http://purl.org/dc/dcmitype/StillImage" />
        <dc:title></dc:title>
      </cc:Work>
    </rdf:RDF>
  </metadata>
  <defs
     id="defs8" />
  <sodipodi:namedview
     pagecolor="#ffffff"
     bordercolor="#666666"
     borderopacity="1"
     objecttolerance="10"
     gridtolerance="10"
     guidetolerance="10"
     inkscape:pageopacity="0"
     inkscape:pageshadow="2"
     inkscape:window-width="1920"
     inkscape:window-height="1036"
     id="namedview6"
     showgrid="false"
     inkscape:zoom="0.12263804"
     inkscape:cx="434.34861"
     inkscape:cy="1254.7324"
     inkscape:window-x="1080"
     inkscape:window-y="44"
     inkscape:window-maximized="1"
     inkscape:current-layer="svg4" />
  <path
     d="m 64.469357,622.90101 c -3.807058,-3.80706 -3.807058,-7.61411 0,-11.42118 7.612654,-7.61411 17.131763,-10.46941 28.551477,-8.56587 11.421176,1.90352 18.083526,3.80705 19.987056,5.71059 13.32471,5.71058 28.07778,18.55867 44.25632,38.54719 16.17854,19.98705 29.0281,33.78691 38.5472,41.40102 45.6847,38.0706 92.31971,40.92589 139.90794,8.56589 3.80705,-13.3247 9.99425,-24.74588 18.55867,-34.26498 8.56443,-9.51765 16.65662,-16.17854 24.27073,-19.98707 7.61558,-3.80705 20.94028,-9.51764 39.97559,-17.13175 -62.81793,-5.71059 -113.73661,-16.65662 -152.75896,-32.83662 -39.02235,-16.17999 -69.95543,-36.6422 -92.79779,-61.38808 -30.45645,-34.26353 -49.0166,-78.99647 -55.67895,-134.19882 -6.66382,-55.20234 -2.38015,-105.64587 12.84955,-151.33057 11.42117,-28.55294 27.60117,-54.24912 48.53854,-77.09293 C 163.44849,121.3196 166.30379,67.069012 187.24261,6.1560808 248.15554,9.9631389 303.35789,30.90196 352.84965,68.972545 448.02611,44.226665 547.00963,43.2749 649.79874,66.117251 663.12346,56.599605 683.58712,44.703278 711.18683,30.425347 738.788,16.148878 773.52814,8.0581474 815.40579,6.1546184 823.0199,27.09344 828.25534,51.83932 831.11064,80.392256 c 2.85529,28.552934 1.42837,55.202344 -4.28222,79.948224 43.77972,45.68471 66.62206,106.59765 68.5256,182.73881 0,60.91293 -10.46795,111.35647 -31.40678,151.33058 -20.93882,39.9741 -58.05764,73.28587 -111.35645,99.93381 -36.16706,17.13324 -83.75529,27.60118 -142.76469,31.40824 26.65087,13.3247 46.1613,27.12602 58.53424,41.40249 12.37441,14.27647 20.46368,36.64221 24.27219,67.09868 v 89.94394 l 2.85384,87.08574 c 5.71059,9.5191 12.3744,17.60837 19.98852,24.27219 7.61411,6.66235 14.27647,11.42118 19.98705,14.27647 5.70913,2.85528 7.61413,7.13897 5.70913,12.84954 -1.90353,5.71059 -9.51764,8.56589 -22.84088,8.56589 -32.36146,0 -58.05765,-11.42118 -77.09294,-34.26498 -5.71059,-9.51765 -8.56588,-20.93737 -8.56588,-34.26354 v -137.0541 c 0,-15.22823 -3.80706,-26.17425 -11.42118,-32.8366 -7.61411,-6.66382 -15.22823,-10.94604 -22.84235,-12.84956 v 179.88351 c 0,32.36 3.80706,53.29881 11.42118,62.81646 7.61411,9.51765 12.37294,19.03676 14.27793,28.55295 1.90352,1.90352 0.47515,3.33044 -4.28367,4.2822 -4.75736,0.9503 -12.8481,-0.47515 -24.27073,-4.2822 -24.74588,-5.71059 -41.87765,-18.56015 -51.39529,-38.5472 -9.51765,-19.98706 -14.27647,-41.4025 -14.27647,-64.24485 V 711.41512 h -37.11882 v 177.02822 c 0,22.84235 -4.76028,44.73439 -14.27793,65.67176 -13.32324,26.65087 -38.07059,40.92588 -74.23618,42.82941 -5.71059,-1.90353 -8.56588,-3.80707 -8.56588,-5.70913 1.90353,-1.90499 7.61412,-11.42118 17.13177,-28.55294 1.90352,-3.80705 4.28367,-11.42118 7.13896,-22.84236 2.85675,-11.42116 4.28367,-24.74587 4.28367,-39.97411 V 719.98101 c -7.61412,1.90352 -14.75309,6.18573 -21.41544,12.84955 -6.66235,6.66381 -9.99426,17.60837 -9.99426,32.83661 v 137.0541 c 0,13.32324 -2.85529,24.74588 -8.56588,34.26353 -17.13176,22.84235 -42.8294,34.26498 -77.09147,34.26498 -13.3247,0 -20.93882,-2.85529 -22.84235,-8.56588 -1.90499,-3.80706 -1.42838,-7.13897 1.42838,-9.99426 2.85676,-2.8553 7.13897,-6.18719 12.84956,-9.99426 5.71058,-3.80706 9.51764,-6.66381 11.42117,-8.56587 7.61412,-5.71059 13.32324,-13.32472 17.13176,-22.84236 5.71059,-7.61411 7.1375,-27.60118 4.28221,-59.96117 -2.85529,-32.36 -3.3319,-53.29882 -1.42838,-62.81647 -49.49322,17.13177 -99.93528,8.56443 -151.33203,-25.69764 -15.22823,-15.22823 -30.45647,-37.12028 -45.6847,-65.67175 -11.42118,-20.94029 -34.263527,-45.68617 -68.525593,-74.23911 z"
     id="path2"
     style="fill:#ffffff;stroke-width:1"
     inkscape:connector-curvature="0"
     sodipodi:nodetypes="ccccccccccscccccccccsccscccccccccscssccsscccssccscccccscssscscssccscccc" />
</svg>
