<?xml version="1.0" encoding="UTF-8" standalone="no"?>
<!-- Svg Vector Icons : http://www.onlinewebfonts.com/icon -->

<svg
   xmlns:dc="http://purl.org/dc/elements/1.1/"
   xmlns:cc="http://creativecommons.org/ns#"
   xmlns:rdf="http://www.w3.org/1999/02/22-rdf-syntax-ns#"
   xmlns:svg="http://www.w3.org/2000/svg"
   xmlns="http://www.w3.org/2000/svg"
   xmlns:sodipodi="http://sodipodi.sourceforge.net/DTD/sodipodi-0.dtd"
   xmlns:inkscape="http://www.inkscape.org/namespaces/inkscape"
   version="1.1"
   x="0px"
   y="0px"
   viewBox="0 0 1000 1000"
   enable-background="new 0 0 1000 1000"
   xml:space="preserve"
   id="svg5887"
   sodipodi:docname="info.svg"
   inkscape:version="0.92.1 r15371"><defs
     id="defs5891" /><sodipodi:namedview
     pagecolor="#ffffff"
     bordercolor="#666666"
     borderopacity="1"
     objecttolerance="10"
     gridtolerance="10"
     guidetolerance="10"
     inkscape:pageopacity="0"
     inkscape:pageshadow="2"
     inkscape:window-width="942"
     inkscape:window-height="480"
     id="namedview5889"
     showgrid="false"
     inkscape:zoom="0.26365625"
     inkscape:cx="145.37158"
     inkscape:cy="500"
     inkscape:window-x="1402"
     inkscape:window-y="98"
     inkscape:window-maximized="0"
     inkscape:current-layer="svg5887" /><metadata
     id="metadata5881"> Svg Vector Icons : http://www.onlinewebfonts.com/icon <rdf:RDF><cc:Work
     rdf:about=""><dc:format>image/svg+xml</dc:format><dc:type
       rdf:resource="http://purl.org/dc/dcmitype/StillImage" /></cc:Work></rdf:RDF></metadata><g
     id="g5885"
     style="fill:#ffffff"><path
       d="m 596.6,318 c -14.7,14.1 -32.2,20.4 -53.2,20.4 -20.3,0 -38.5,-6.3 -53.2,-20.4 -14.7,-13.3 -21.7,-30.1 -21.7,-49 0,-19.6 7,-36.4 21.7,-49.7 14.7,-14 32.9,-21 53.2,-21 21,0 38.5,7 53.2,21 14.7,13.3 21.7,30.1 21.7,49.7 0,18.9 -7,35.7 -21.7,49 z m 5.6,451.5 c -25.2,9.8 -45.5,17.5 -60.9,22.4 -14.7,5.6 -32.2,8.4 -51.8,8.4 -30.8,0 -54.6,-7.7 -71.4,-22.4 -16.8,-15.4 -25.2,-34.3 -25.2,-56.7 0,-9.1 0.7,-18.3 1.4,-27.3 1.4,-9.8 3.5,-20.4 6.3,-31.6 l 31.5,-112 7,-30.1 c 2.1,-9.9 2.8,-18.2 2.8,-26.6 0,-14 -2.8,-23.9 -8.4,-29.4 -6.3,-5.6 -17.5,-8.4 -33.6,-8.4 -8.4,0 -16.8,1.4 -25.2,3.5 l -22.4,7.7 8.4,-34.3 c 21,-8.4 40.6,-16.1 59.5,-21.7 18.9,-6.3 37.1,-9 53.9,-9 30.1,0 53.2,7 70,21.7 16.1,14.7 24.5,33.6 24.5,57.4 l -1.4,25.2 c -1.4,12.7 -3.5,23.9 -6.3,34.3 l -31.5,110.6 c -2.8,9.1 -4.9,19.6 -7,30.8 -2.1,11.2 -3.5,20.2 -3.5,25.8 0,14.8 3.5,25.2 10.5,30.1 6.3,5.6 17.5,8.5 34.3,8.5 7.7,0 16.1,-1.4 25.9,-4.2 9.8,-2.8 16.8,-4.9 21,-7 z M 500,10 C 229.1,10 10,229.1 10,500 10,770.9 229.1,990 500,990 770.9,990 990,770.9 990,500 990,229.1 770.9,10 500,10 Z"
       id="path5883"
       inkscape:connector-curvature="0"
       style="fill:#ffffff" /></g></svg>