<svg xmlns="http://www.w3.org/2000/svg" height="24" width="24" version="1.1" viewBox="0 0 24 24"><path d="m21.231 0h-18.462c-1.529 0-2.769 1.24-2.769 2.769v18.46c0 1.531 1.24 2.771 2.769 2.771h18.463c1.529 0 2.768-1.24 2.768-2.771v-18.46c0-1.529-1.239-2.769-2.769-2.769zm-9.231 7.385c2.549 0 4.616 2.065 4.616 4.615 0 2.549-2.067 4.616-4.616 4.616s-4.615-2.068-4.615-4.616c0-2.55 2.066-4.615 4.615-4.615zm9 12.693c0 0.509-0.413 0.922-0.924 0.922h-16.152c-0.511 0-0.924-0.413-0.924-0.922v-10.078h1.897c-0.088 0.315-0.153 0.64-0.2 0.971-0.05 0.337-0.081 0.679-0.081 1.029 0 4.079 3.306 7.385 7.384 7.385s7.384-3.306 7.384-7.385c0-0.35-0.031-0.692-0.081-1.028-0.047-0.331-0.112-0.656-0.2-0.971h1.897v10.077zm0-13.98c0 0.509-0.413 0.923-0.924 0.923h-2.174c-0.511 0-0.923-0.414-0.923-0.923v-2.175c0-0.51 0.412-0.923 0.923-0.923h2.174c0.511 0 0.924 0.413 0.924 0.923v2.175z" fill-rule="evenodd" clip-rule="evenodd" fill="#fff"/></svg>
