<?xml version="1.0" encoding="UTF-8" standalone="no"?>
<svg
   xmlns:dc="http://purl.org/dc/elements/1.1/"
   xmlns:cc="http://creativecommons.org/ns#"
   xmlns:rdf="http://www.w3.org/1999/02/22-rdf-syntax-ns#"
   xmlns:svg="http://www.w3.org/2000/svg"
   xmlns="http://www.w3.org/2000/svg"
   xmlns:sodipodi="http://sodipodi.sourceforge.net/DTD/sodipodi-0.dtd"
   xmlns:inkscape="http://www.inkscape.org/namespaces/inkscape"
   enable-background="new 0 0 40 40"
   height="40px"
   id="Layer_1"
   version="1.1"
   viewBox="0 0 40 40"
   width="40px"
   xml:space="preserve"
   sodipodi:docname="phone.svg"
   inkscape:version="0.92.1 r15371"><metadata
     id="metadata4575"><rdf:RDF><cc:Work
         rdf:about=""><dc:format>image/svg+xml</dc:format><dc:type
           rdf:resource="http://purl.org/dc/dcmitype/StillImage" /><dc:title></dc:title></cc:Work></rdf:RDF></metadata><defs
     id="defs4573"><filter
       inkscape:collect="always"
       style="color-interpolation-filters:sRGB"
       id="filter4656"
       x="-0.024031579"
       width="1.0480632"
       y="-0.023968504"
       height="1.047937"><feGaussianBlur
         inkscape:collect="always"
         stdDeviation="0.3805"
         id="feGaussianBlur4658" /></filter></defs><sodipodi:namedview
     pagecolor="#ffffff"
     bordercolor="#666666"
     borderopacity="1"
     objecttolerance="10"
     gridtolerance="10"
     guidetolerance="10"
     inkscape:pageopacity="0"
     inkscape:pageshadow="2"
     inkscape:window-width="1920"
     inkscape:window-height="1036"
     id="namedview4571"
     showgrid="false"
     inkscape:pagecheckerboard="true"
     inkscape:zoom="14.531044"
     inkscape:cx="16.828532"
     inkscape:cy="17.101779"
     inkscape:window-x="1080"
     inkscape:window-y="44"
     inkscape:window-maximized="1"
     inkscape:current-layer="g4568" /><g
     id="g4568"><path
       style="opacity:0.47999998;fill:#000000;fill-opacity:1;stroke-width:1.00530279;paint-order:fill markers stroke;filter:url(#filter4656)"
       d="M 20.311819,1.0741808 A 19.000724,19.050725 0 0 0 1.311818,20.124183 19.000724,19.050725 0 0 0 20.311819,39.174184 19.000724,19.050725 0 0 0 39.31182,20.124183 19.000724,19.050725 0 0 0 20.311819,1.0741808 Z m -6.32541,6.5756229 c 1.178398,0.1471644 1.99747,1.5451819 2.638559,2.5477873 0.713201,1.112884 1.590249,2.417312 1.236083,3.86577 -0.197166,0.812699 -0.929535,1.255503 -1.4833,1.735068 -0.546461,0.473464 -1.3811,0.90769 -1.583134,1.63497 -0.329824,1.179998 0.392448,2.419237 0.83911,3.124551 1.015031,1.593671 2.241718,3.028953 3.80808,4.311455 0.758233,0.622336 1.811565,1.455264 2.86676,1.241718 1.5761,-0.31971 1.992183,-2.268803 3.708246,-2.52872 1.6333,-0.247715 2.738169,0.939453 3.660702,1.735068 0.888458,0.76999 2.322312,1.755395 2.224949,3.074504 -0.0572,0.757786 -0.66277,1.227418 -1.188542,1.685017 -0.534292,0.467362 -1.002634,0.991717 -1.530839,1.337051 -1.279134,0.837104 -2.848312,1.247801 -4.649568,1.191669 -1.765962,-0.05491 -3.173192,-0.657304 -4.449895,-1.339435 -2.4962,-1.334974 -4.469329,-3.212546 -6.327787,-5.305304 C 11.927802,23.903601 10.239428,21.468346 9.305937,18.775214 8.141206,15.412157 8.759001,11.956951 10.644236,9.8019584 10.963107,9.4358762 11.466592,9.055647 11.927859,8.6627211 12.38791,8.2685747 12.812438,7.7908972 13.458698,7.6688704 c 0.183626,-0.034778 0.359369,-0.040086 0.527711,-0.019073 z"
       id="path4579-3"
       inkscape:connector-curvature="0"
       transform="matrix(0.9947253,0,0,0.99472476,0.27768114,0.48433446)" /><g
       id="g4564"
       style="fill:#ffffff;stroke-width:0.7847057"
       transform="matrix(1.2743635,0,0,1.2743628,-5.5903547,-5.5901529)"><g
         id="g4562"
         style="fill:#ffffff;stroke-width:0.7847057" /></g><path
       style="opacity:1;fill:#ffffff;fill-opacity:1;stroke-width:0.99999982;paint-order:fill markers stroke"
       d="M 18.902188,0.04004403 A 18.9005,18.950228 0 0 0 0.00240843,18.98955 18.9005,18.950228 0 0 0 18.902188,37.939058 18.9005,18.950228 0 0 0 37.801969,18.98955 18.9005,18.950228 0 0 0 18.902188,0.04004403 Z M 12.610143,6.580979 c 1.172182,0.1463881 1.986934,1.5370309 2.624641,2.5343449 0.709439,1.1070131 1.581861,2.4045601 1.229563,3.8453771 -0.196126,0.808411 -0.924632,1.24888 -1.475476,1.725915 -0.543578,0.470966 -1.373815,0.902901 -1.574783,1.626345 -0.328085,1.173773 0.390378,2.406475 0.834684,3.108068 1.009677,1.585264 2.229893,3.012975 3.787993,4.288711 0.754234,0.619053 1.802009,1.447587 2.851638,1.235168 1.567786,-0.318024 1.981675,-2.256835 3.688686,-2.515381 1.624685,-0.246408 2.723726,0.934498 3.641393,1.725916 0.883772,0.765928 2.310062,1.746134 2.213213,3.058285 -0.0569,0.753788 -0.659274,1.220943 -1.182273,1.676128 -0.531474,0.464896 -0.997345,0.986485 -1.522764,1.329998 -1.272387,0.832688 -2.833288,1.241218 -4.625043,1.185382 C 21.344968,31.350616 19.945161,30.7514 18.675193,30.072867 16.19216,28.744935 14.229438,26.877268 12.380783,24.79555 10.562394,22.749031 8.8829262,20.326623 7.9543611,17.647697 6.7957738,14.302381 7.4103094,10.865402 9.285599,8.721779 9.6027877,8.3576291 10.103617,7.9794061 10.562451,7.588553 c 0.457624,-0.3920672 0.879913,-0.8672248 1.522764,-0.9886079 0.182658,-0.034594 0.357474,-0.039874 0.524928,-0.018972 z"
       id="path4579"
       inkscape:connector-curvature="0" /></g></svg>