<svg style="enable-background:new" xmlns="http://www.w3.org/2000/svg" viewBox="0 0 404.99999 495" height="495" width="405" version="1.1">
<defs>
<filter id="a" style="color-interpolation-filters:sRGB">
<feBlend in2="BackgroundImage" mode="normal"/>
</filter>
</defs>
<title>plumber</title>
<g transform="translate(-7.0921 -75.352)" filter="url(#a)">
<g stroke-width="1.0017" transform="matrix(.99675 0 0 .99984 -79.713 .099574)">
<g stroke-width="1.0017">
<path d="m286.25 75.277c-3.0376 0.06453-5.6004 0.04432-8.8945 1.6914-1.6004 0.8002-11.153 3.2699-19.902 5.2832-4.3749 1.0066-8.7414 2.04-12.564 3.168-3.8231 1.128-6.8491 1.8488-10.148 4.4883-4.666 3.7328-6.7013 8.5697-8.1562 12.449-1.455 3.8795-2.1094 7.1758-2.1094 7.1758a7.1621 7.1621 0 0 0 0.53515 4.418c-1.5717 3.0974-7.1626 14.204-13.664 29.283-7.4785 17.346-15.322 36.871-15.666 51.314-0.25426 10.679 0.68351 26.634 2.8887 42.221 1.5164 10.718 3.4798 20.923 6.4785 29.508-0.0312 0.0269-0.0846 0.0534-0.11523 0.0801-1.3997 1.2178-2.4106 2.4929-3.3867 3.8652-1.9522 2.7446-3.6649 5.9217-5.2715 9.1719-3.2132 6.5003-5.9923 13.522-6.6406 15.035 0.69725-1.6269-0.77328 0.51215-2.6856 1.5488-1.2652 0.68587-1.7774 0.8578-2.4551 1.1387-1.2762-1.9794-2.5428-3.9958-4.0547-5.793-2.0466-2.4327-3.7877-5.0771-8.7246-6.0644 2.0036 0.40072-1.2636-0.86468-4.082-3.2676-1.3956-1.1898-3.2184-2.8373-4.8594-4.3145 0.13432-2.5022 0.88685-16.859 2.2148-34.18 0.71948-9.3841 1.5604-18.901 2.4414-26.199 0.44051-3.6492 0.8973-6.759 1.3125-8.8809 0.15137-0.77358 0.27214-1.2123 0.38867-1.6562 0.7894-0.71001 1.9018-1.3596 4.2148-2.8027 1.3178-0.82217 2.9885-1.9489 4.4609-3.9336s2.416-4.8378 2.416-7.5254c0-4.898-1.4942-9.0582-2.5703-13.168-0.53809-2.0549-1.0084-3.9706-1.2461-5.3281-0.2377-1.3576 0.0819-2.3521-0.30273-1.0059 0.82053-2.8718 0.9094-5.0101 1.3594-9.1094 0.44998-4.0993 0.92021-9.1916 1.3047-14.375 0.38448-5.1834 0.68269-10.439 0.78125-14.91 0.0986-4.4708 0.3698-7.3804-0.67383-11.207-0.85624-3.1395-2.3742-4.501-3.8301-5.8984-1.4558-1.3975-3.0799-2.629-4.8926-3.8672-3.6253-2.4763-7.9997-4.9169-12.477-7.1562-4.4769-2.2394-9.0186-4.2483-12.941-5.7246-1.9614-0.73813-3.7562-1.3441-5.4316-1.7891-1.6754-0.44492-2.878-0.9426-5.5957-0.64063 0.7938-0.0882-0.66614-0.06101-2.3574-0.44336s-3.8868-0.99617-6.1875-1.6562c-4.6015-1.3202-9.025-2.933-13.865-3.1562-1.4489-0.06684-2.992-0.19446-5.377 0.99805-2.7422 1.3711-5.6563 2.3633-5.6563 2.3633a7.1621 7.1621 0 0 0 -4.6758 5.0293c-4.2426 16.687-5.8185 28.999-5.0215 38.668 0.66759 8.0982 3.5006 14.618 8.0195 19.002-3.9095 0.54747-6.9717 3.0567-8.6895 5.7598-1.9309 3.0384-2.8105 6.5316-2.8105 10.271 0 3.7399 0.87964 7.2331 2.8105 10.271 1.9309 3.0384 5.4943 5.9844 10.133 5.9844 4.6385 0 8.2019-2.946 10.133-5.9844 1.9309-3.0384 2.8106-6.5316 2.8106-10.271 0-3.7399-0.87964-7.2331-2.8106-10.271-0.11949-0.18804-0.29977-0.36219-0.43164-0.54883 4.0849 0.37595 7.9858-0.3401 10.988-1.1504 5.053-1.3637 8.7529-1.7406 8.2031-1.9238 0.0203 0.007 2.9013 2.3292 4.5176 5.457 1.4249 2.7575 1.5823 5.6595 1.8086 5.7422-0.64665 0.45576-1.9209 1.1405-3.4961 2.0234-1.6035 0.89877-3.6023 1.8984-5.5723 4.332s-2.9759 7.1898-1.7246 10.631c1.323 3.6381 2.9342 6.0766 3.7754 7.2695 0.68939 0.97761 0.64426 0.98049 0.80078 1.6035 0.0355 0.48233 0.18992 1.7274 0.20703 2.9883 0.0284 2.0927 0.0121 4.9705-0.0391 8.3164-0.10241 6.6919-0.34197 15.28-0.61719 23.732-0.45814 14.07-0.8584 23.5-1.0312 27.699-0.52301-0.008-1.0121-0.12734-1.5391-0.11328-5.5877 0.14913-11.976 1.6876-16.328 6.9102-2.6488 3.1785-3.9424 6.6193-5.4551 10.82-1.5127 4.201-2.901 8.9907-4.1133 13.768-1.2123 4.7769-2.2406 9.5224-2.9805 13.582-0.73986 4.0596-1.2363 7.0984-1.2363 9.9453 0 3.4478 0.76206 6.551 1.7871 11.029 1.025 4.4783 2.3991 9.7024 3.8887 14.766 1.4896 5.0633 3.0765 9.9283 4.6094 13.812 0.76646 1.9421 1.493 3.6165 2.3672 5.1699 0.43711 0.77671 0.88603 1.5244 1.6484 2.4062 0.76241 0.88184 1.7673 2.3532 4.9336 2.8809 0.89044 0.14841 2.5851 0.41719 4.6777 0.66016-0.32674 3.0326-2.0104 18.67-4.0859 38.098-2.2675 21.224-4.5596 42.721-4.8945 46.74-0.20857 2.5029 0.87184 5.7822 2.8047 7.6562 1.9328 1.874 3.9798 2.4923 5.6836 2.8301 3.4076 0.6755 6.3068 0.31401 9.2578-0.11914 2.951-0.43316 5.8252-1.083 8.1758-1.6465 2.3506-0.56343 4.5844-1.0893 4.4238-1.0625 2.3823-0.39705 3.6858-1.6689 4.3789-2.4648 0.69316-0.7959 0.97435-1.3659 1.2031-1.8379 0.45754-0.944 0.62497-1.565 0.80078-2.2188 0.35161-1.3075 0.59141-2.6517 0.8457-4.2969 0.50857-3.2903 0.99684-7.6494 1.4941-12.848 0.9946-10.396 1.9954-24.055 2.8926-37.697 0.77736-11.82 0.83213-14.015 1.375-23.594 0.0387-0.008 0.0909 0.005 0.12891-0.004 4.9156-1.1344 9.44-3.4617 13.609-5.6914 4.1694-2.2298 8.0512-4.4689 9.7207-5.2109 0.58345-0.25931 2.6768-0.9558 4.0352-1.4023 0.20835 0.22412 0.38456 0.39469 0.60547 0.58789 0.0252 0.3536 0.0921 0.68348 0.0781 0.9414-0.038 0.69992-0.0146 1.2106 0.0176 1.7656 0.0644 1.11 0.19806 2.3221 0.38672 3.7871 0.37733 2.93 0.9856 6.7948 1.7559 11.371 1.5405 9.1526 3.7318 21.092 5.9746 33.096s4.535 24.064 6.2617 33.373c0.86337 4.6547 1.587 8.6256 2.0859 11.523 0.2223 1.291 0.38086 2.2793 0.50391 3.084-0.22635 0.20952-0.17775 0.15775-0.58984 0.54688-0.95383 0.90067-3.0827 2.6817-3.375 6.4707-0.29234 3.789 1.9675 6.6722 3.8555 8.3242-0.28615-0.25038 3.3771 4.9742 5.2812 9.877 0.95206 2.4514 1.7192 4.9605 2.1172 6.9238 0.39801 1.9634 0.18831 3.5029 0.34571 2.9258-0.0775 0.28418-0.0568 0.38799-0.0137 0.42579-0.01-0.0793-0.0249-0.19888-0.7246 0.29492-0.85642 0.60437-2.8322 2.1429-3.8613 4.6328-0.89406 2.1631-0.85738 4.2703-0.58203 6.2676-1.9402-0.7002-3.6621-1.2031-3.6621-1.2031a7.1621 7.1621 0 0 0 -7.4336 2.373c-0.20455-0.079-1.2656-0.49414-1.2656-0.49414a7.1621 7.1621 0 0 0 -9.3164 4.2637c-1.5918-0.20201-3.0684-0.30664-3.0684-0.30664a7.1621 7.1621 0 0 0 -7.6719 5.6973c-3.1609-0.2232-6.6472-0.43789-10.262-0.61719-8.4744-0.42038-16.641-0.69922-16.641-0.69922a7.1621 7.1621 0 0 0 -7.2617 5.7363 7.1621 7.1621 0 0 0 -1.7539 5.5684c0.44763 3.8049 0.18569 8.769 0.58203 13.854 0.19817 2.5423 0.54873 5.1745 1.6484 7.9141s3.2423 5.6851 6.3906 7.4023c5.1571 2.813 11.223 3.6919 18.037 4.2891 6.8137 0.59713 13.753 0.5979 19.66-0.8789 5.1619-1.2905 11.383-3.6322 17.393-5.4844 6.0098-1.8522 12.054-2.8458 13.549-2.6465 2.4708 0.32943 11.673 2.9763 20.021 4.791 4.1742 0.90734 8.2643 1.6473 12.207 1.7031 1.9714 0.0279 3.9245-0.08 6.084-0.74805 2.1594-0.6681 4.851-2.1852 6.3906-5.0078 2.2256-4.0804 3.42-8.353 3.627-12.504 0.10349-2.0755 0.0629-4.1278-0.96484-6.6016-0.16969-0.40845-0.50165-0.8511-0.79883-1.2871 0.0237-0.21724 0.13672-0.45665 0.13672-0.66211 0-1.3823 0.011-5.245-0.46289-9.4141-0.35115-3.0894-0.38984-6.3638-2.25-9.7246 1.229 0.30265 2.4648 0.47925 3.5957 0.33789 1.615-0.20187 7.5397-0.65125 13.072-1.5449 2.7663-0.44684 5.4882-0.98294 8.0859-1.8867 1.2988-0.45189 2.578-0.97147 3.9688-1.9043 1.3907-0.93282 3.2086-2.4372 4.0273-5.3027 0.13302-0.46559 0.38542-1.6816 0.55078-2.3457 1.8511-0.7783 3.212-1.9188 4.6914-3.0527 2.4798-1.9007 4.8942-4.2261 7.1602-6.7227 2.2659-2.4966 4.3468-5.1302 6.0137-7.7402 1.5706-2.4592 3.1142-4.4246 3.293-8.4473 1.2818 4.2052 2.2292 7.2254 4.4082 14.699 1.6767 5.7509 3.3344 11.603 4.5156 16.129 0.59062 2.2629 1.0618 4.2047 1.3438 5.543 0.0914 0.43395 0.12624 0.65537 0.17383 0.92968-0.0302-0.14847-0.53938 1.8019-1.3496 4.3066-0.91824 2.8387-2.0571 6.3508-3.0332 9.7598s-1.8256 6.5071-2.0801 9.6836c-0.11262 1.4057-0.56548 2.9032 0.82031 5.5703-0.22852 0.89022-0.48135 1.6472-0.64453 2.6758-0.29765 1.8762-0.97021 3.8813 0.69922 7.4688 0.26054 0.55988 0.84482 1.1434 1.3398 1.7266-0.0359 0.44684-0.11503 0.75116-0.1289 1.2285-0.0485 1.6674-0.0236 3.5627 0.77148 5.8887 0.79509 2.3259 3.1281 5.5687 6.6953 6.5879 3.1848 0.90993 8.1828 1.7131 14.514 2.4316 6.3309 0.71855 13.244 1.2377 19.133 0.54492 4.7776-0.56208 13.416-1.6654 21.084-3.1797 3.8338-0.75713 7.379-1.5784 10.443-2.6894 1.5322-0.55553 2.9361-1.1128 4.5312-2.2559 0.79758-0.57151 1.6942-1.3003 2.5508-2.6172 0.85655-1.3169 1.5749-3.4972 1.2695-5.6348-0.058-0.40617-0.008-4.3199-0.45312-8.1016-0.22231-1.8908-0.46003-3.9141-1.8828-6.3984-1.002-1.7495-3.481-3.6088-6.1406-4.4277-0.97282-1.5119-2.0896-2.8391-3.4375-4.0586-2.8102-2.5425-6.55-4.9876-11.588-5.1191 0.0623-0.35634 0.18449-0.7542 0.22266-1.082 0.3602-3.0942-0.10701-5.6738-0.7168-8.4336-1.2196-5.5196-3.0184-10.805-5.791-14.963 0.34622 0.51933-1.8282-3.7228-3.7695-8.3945-1.9414-4.6718-4.2691-10.549-6.5312-16.348-2.2622-5.7983-4.4614-11.523-6.168-15.949-0.85327-2.213-1.5817-4.0977-2.1426-5.5254-0.0778-0.1981-0.12135-0.27584-0.1836-0.43946 1.1526-0.62983 2.668-1.2847 3.7051-1.8984 0.494-0.29234 0.82685-0.59394 1.291-0.88086 0.43541 0.4209 0.85743 0.8438 1.4707 1.248 1.675 1.1041 4.621 1.8858 7.1602 1.1934 3.0332-0.82722 15.291-4.166 27.086-8.1934 5.8977-2.0137 11.666-4.1776 16.375-6.4512 2.3543-1.1368 4.4367-2.2715 6.3301-3.6836s4.2601-2.9123 4.9824-7.2461c0.43795-2.6277 0.72008-6.7334 0.88477-11.436 0.26995-0.0772 0.6337-0.14733 0.85742-0.22657 0.94054-0.33308 1.6954-0.69009 2.5527-1.1172 1.7148-0.85419 3.7194-1.9846 6.0625-3.3594 4.6862-2.7496 10.633-6.4485 16.703-10.24 6.0704-3.7918 12.256-7.6727 17.27-10.703 5.014-3.0304 9.9712-5.4618 9.3066-5.2402 3.1834-1.0611 6.0025-3.4525 7.3984-6.2461 1.396-2.7936 1.5274-5.6382 1.123-8.0664-0.40439-2.4282-1.2982-4.5595-2.8106-6.5-0.22864-0.29337-0.64825-0.55359-0.92188-0.85156 0.0693-0.0184 0.35836-0.15878 0.41407-0.16993 2.1234-0.42468 3.0376 0.0505 5.7793 0.8711 1.3708 0.41029 4.1855 1.7417 8.0918-0.56446 1.9532-1.1531 3.1765-3.0629 3.7344-4.5176 0.55789-1.4546 0.71266-2.6516 0.81445-3.873 0.26032-3.1239-1.0504-6.3156-2.8106-8.3242-1.7601-2.0086-3.79-3.1766-5.8379-4.0469-4.0958-1.7405-8.5481-2.3239-13.08-2.2266-4.1432 0.089-8.2892 0.77154-12.156 2.5762-7.9684 3.7186-37.093 16.605-40.572 18.096-2.9992 1.2854-7.9198 3.5304-11.619 5.207-2.1892-4.4603-3.8132-7.7078-6.3887-12.816-2.1967-4.3573-4.365-8.4321-6.4141-11.91 2.8014-2.9877 2.4679-5.5027 2.4121-7.3691-0.0576-1.929-0.38147-3.7069-0.81836-5.6367-0.87377-3.8596-2.2844-8.2176-3.8476-12.629-3.1264-8.8227-6.9515-17.898-7.9492-20.393-1.5172-3.7931-4.9175-10.33-9.2207-16.852-2.1516-3.2609-4.4592-6.4024-7.041-9.0469-0.85022-0.87085-1.8564-1.6761-2.8262-2.498 2.9917-2.2036 5.5047-4.7382 7.2383-8.0898-0.92803 1.7942 1.369-1.1935 4.6172-3.4551s7.5129-4.9816 11.676-7.877c4.1629-2.8954 8.2194-5.8844 11.443-9.4102 1.612-1.7629 3.0836-3.6679 4.0566-6.2441s1.1768-6.2519-0.3418-9.2891c-2.3095-4.619-5.4266-8.4723-9.7559-10.436 2.137-3.3471 4.6025-7.3257 7.1543-11.428 2.7159-4.3658 5.4696-8.7598 7.7578-12.213 1.9786-2.9858 3.531-4.799 3.6172-5.043 0.34522 0.0702 0.46937 0.0886 1.2559 0.26368 0.65677 0.14619 1.4216 0.41932 3.1738 0.31054 0.87611-0.0544 2.11-0.23312 3.5117-1.0371s2.7433-2.3763 3.3262-3.8438c1.1657-2.9348 0.5047-4.5609 0.15625-5.8047-0.34846-1.2438-0.79164-2.277-1.3633-3.502-0.21553-0.46186-0.28861-0.55392-0.5039-0.99804 0.64572 0.17349 1.1636 0.3317 1.8203 0.49804 2.9079 0.73659 5.7897 1.402 8.8164 1.5547 1.5134 0.0763 3.083 0.0872 5.0762-0.53125 1.9931-0.61844 4.8349-2.4932 5.9434-5.4492 1.6354-4.3611-0.35039-7.1417-1.5117-8.7988-1.1613-1.6572-2.435-2.9084-3.8867-4.2285-2.9034-2.6403-6.5403-5.3564-10.338-8.0977-3.7976-2.7413-7.7308-5.4663-10.943-7.791-3.2125-2.3247-5.9284-4.6251-6.1094-4.8262-2.5361-2.8179-9.6379-10.616-17.295-18.057-3.8285-3.7201-7.7822-7.3471-11.516-10.297-3.7334-2.9498-6.625-5.4305-11.514-6.4082-2.6631-0.53262-9.8789-3.2018-16.404-6.0273-6.5254-2.8255-12.837-5.8461-15.422-7.1387-2.7486-1.3743-5.2204-1.9247-9.1289-2.9121-3.9085-0.98741-8.7085-2.0479-13.82-3.0273-10.224-1.9589-21.388-3.6463-29.656-3.4707zm-43.8 211.08c0.0301 0.009 0.16053 0.13657 0.19727 0.15234-0.0795-0.014-0.32055-0.0369-0.36523-0.0469-0.11557-0.0258-0.11205-0.19262 0.16796-0.10546zm-11.393 3.8828 1.0352 1.2578-1.5469-0.88086zm26.877 133.7c7.8773 0.034 15.843 0.25799 21.938 0.63476 0.55025 0.034 0.81748 0.0806 1.3359 0.11719-0.57394 0.5105-1.1445 1.0028-1.9297 2.377-0.48915 0.85601-1.8948 2.441-2.9316 3.1035-1.0368 0.66253-0.83896 0.42205-0.59766 0.5293-4.815-2.14-21.354-8.9741-38.742 2.1719-1.802 1.1551-3.3342 2.482-4.8672 3.8047-0.12418-1.6681-0.24607-2.0222-0.30078-3.6758-0.0986-2.9796-0.10585-5.8953-0.0137-8.1367 1.3654-0.15764 2.6377-0.32219 4.6328-0.44531 5.7701-0.3561 13.599-0.51443 21.477-0.48047zm-28.258 1.1406c-0.61048 0.3556-0.99013 0.19355-1.0312 0.20704-0.0722 0.0237 0.4079-0.0994 1.0312-0.20704zm158.84 120.15c0.16984 0.12526-0.57597 0.49469-0.22851 0.33399 0.077-0.11027 0.14638-0.20118 0.22851-0.33399z" transform="matrix(-1 0 0 1 580.5 0)" fill="#fff"/>
<path d="m347.91 114.78s29.199 56.788 29.75 79.938c0.55119 23.15-4.9477 76.605-17.625 83.219-12.677 6.6142-11.566 14.892-39.125 12.688-27.559-2.2047-98.138-17.652-106.41-33.637-3.223-6.2312-35.804-20.94-31.394-29.759 4.4095-8.819 8.8141-9.3491 17.082-6.042 8.2678 3.3071 7.7236 28.665 17.094 27.562 9.3702-1.1024 2.1902-18.752 3.8438-26.469 1.6536-7.7166-11.017-1.6665-14.875-14.344-3.8583-12.677-8.2877-43.53 0.53125-55.656s64.516-39.148 74.438-34.188c9.9213 4.9607 66.688-3.3125 66.688-3.3125z" fill="#ffe6d5"/>
<path d="m350.09 182.03s-18.727 1.1164-23.688 2.2188c-4.9607 1.1024 0.53664 15.42 3.8438 17.625 3.3071 2.2047 17.642 2.2134 21.5-1.0938 3.8583-3.3071-0.003-7.1751-1.6562-18.75z" fill="#fff"/>
<path d="m302.16 184.25s-12.687 4.4003-18.75 7.1562-3.3125 19.281-3.3125 19.281l25.9-3.85z" fill="#fff"/>
</g>
<g stroke-width="1.0017" fill="#784421">
<path d="m349 110.94c-21.496 15.433-22.047 19.291-33.071 19.843-11.024 0.55119-42.992-6.063-55.67-6.063-12.677 0-44.095 14.882-48.504 23.15-4.4095 8.2678-12.677 54.567-7.1654 61.182 5.5118 6.6142 23.15 12.677 22.047 18.74-1.1024 6.063 8.819 17.087 3.3071 18.189-5.5118 1.1024-13.228 4.4095-15.433-1.6536-2.2047-6.063-14.331-25.355-17.087-27.559-2.7559-2.2047-20.945-34.173-25.355-38.032-4.4095-3.8583-11.575 3.8583-7.7166-4.4095 3.8583-8.2678 8.2678-13.78 3.8583-13.78s-23.15 7.7166-24.803 3.3071c-1.6536-4.4095 26.457-20.945 31.418-26.457 4.9607-5.5118 28.11-30.866 36.378-32.52 8.2678-1.6536 28.11-11.024 33.622-13.78 5.5118-2.7559 47.402-11.575 55.119-7.7166 7.7166 3.8583 35.827 7.7166 41.339 12.126 5.5118 4.4095 7.7166 15.433 7.7166 15.433z"/>
<path d="m298.29 156.14c6.6142 1.6536 7.7166 12.677 1.1024 12.126-6.6142-0.55118-15.984-0.55118-18.189 0.55119-2.2047 1.1024-7.7166 12.677-10.473 8.2678-2.7559-4.4095-1.6536-12.677 5.5118-16.536 7.1654-3.8583 17.559-5.5315 22.047-4.4095z"/>
<path d="m355.07 159.44c-1.6536 5.5118-0.55119 11.024-5.5118 8.819-4.9607-2.2047-22.599 1.1024-23.15-2.7559-0.55119-3.8583 1.6536-10.473 7.1654-10.473s22.492 1.0891 21.496 4.4095z"/>
</g>
<g stroke-width="1.0017" fill="#f95">
<path d="m394.75 304.4c-4.4095 7.1654-8.819 46.3-6.063 47.953 2.7559 1.6536 8.819 6.6142 1.6536 4.4095s-27.008-27.008-28.11-35.276c-1.1024-8.2678-2.2047-27.008-3.8583-32.52-1.6536-5.5118 5.5118-18.189 10.473-18.189 4.9607 0 13.78 22.599 15.433 26.457 1.6536 3.8583 10.473 7.1654 10.473 7.1654z"/>
<path d="m344.59 284.56c1.1024 2.2047 12.126 37.481 8.2678 39.685-3.8583 2.2047-38.032 8.2678-38.583 4.4095-0.55119-3.8583-9.3702-38.032-4.9607-36.378 4.4095 1.6536 29.764 2.7559 31.969 0.55119 2.2047-2.2047 3.3071-8.2678 3.3071-8.2678z"/>
<path d="m294.43 291.18c2.7559 13.228 8.2678 36.378 4.4095 40.788-3.8583 4.4095-39.685 38.583-47.402 40.788-7.7166 2.2047-11.024-15.433-10.473-18.189 0.55118-2.7559 4.4095-9.3702-1.6536-12.677-6.063-3.3071-44.095-8.2678-44.095-8.2678s-0.55118 7.7166-3.8583 4.4095 9.3701-33.071 11.575-38.583c2.2047-5.5118 13.78-27.008 20.394-27.008 6.6142 0 33.071 8.819 37.481 10.473 4.4095 1.6536 33.622 8.2678 33.622 8.2678z"/>
</g>
<g stroke-width="1.0017">
<path d="m395.3 312.67s9.3702-19.291 14.882-20.394c5.5118-1.1024 20.394-18.74 28.662-21.496 8.2678-2.7559 20.945-4.9607 26.457 1.6536 5.5118 6.6142 12.126 36.929 12.126 43.544 0 6.6142-9.9213 42.441-13.228 42.992-3.3071 0.55118-17.087 2.7559-20.945-1.6536-3.8583-4.4095-2.7559-11.024 0-14.331 2.7559-3.3071-6.063-2.7559-6.6142-8.819-0.55119-6.063 11.575-13.78 6.6142-17.087-4.9607-3.3071-11.575 2.7559-10.473-4.4095 1.1024-7.1654 4.4095-14.882 1.1024-18.189-3.3071-3.3071-15.984 0-13.78 5.5118 2.2047 5.5118 15.984 24.803 10.473 32.52-5.5118 7.7166 4.4095 36.378-2.7559 34.725-7.1654-1.6536-17.087-8.2678-22.047-10.473-4.9607-2.2047-16.536-4.4095-15.984-8.2678 0.55119-3.8583 5.5118-35.827 5.5118-35.827z" fill="#ffe6d5"/>
<path d="m237.66 348.5c1.1024 2.2047 20.394 53.465 15.984 57.323-4.4095 3.8583-18.189-2.7559-19.843 1.1024-1.6536 3.8583-6.6142 41.89-12.677 40.236-6.063-1.6536-48.504-13.228-49.607-19.843-1.1024-6.6142-2.2047-36.929 2.7559-45.748 4.9607-8.819 18.74-40.236 23.15-41.89 4.4095-1.6536 40.237 8.819 40.237 8.819z" fill="#ffe6d5"/>
<path d="m477.98 103.22c8.2678 32.52 5.5118 46.851-2.7559 52.363-8.2678 5.5118-19.291-3.3071-25.906-1.1024-6.6142 2.2047-12.677 14.882-11.024 20.394 1.6536 5.5118 13.228 6.063 11.024 12.126-2.2047 6.063-3.8583 5.5118-4.9607 9.9213s1.6536 70 1.6536 70l-20.945 13.228s-3.8583-73.308-7.7166-77.717c-3.8583-4.4095-9.9213-4.4095-9.9213-9.9213s4.9607-17.638 3.8583-21.496c-1.1024-3.8583-4.4095-39.685-2.7559-45.748s32.52-20.394 37.481-19.843c4.9607 0.55118 22.047-6.6142 25.355-4.9607 3.3071 1.6536 6.6142 2.7559 6.6142 2.7559z" fill="#ccc"/>
<path d="m431.68 342.99s5.5119 108.58 8.819 109.13c3.3071 0.55118 22.599 6.6142 22.047 0-0.55119-6.6142-9.3702-88.19-9.3702-88.19s-14.331-5.5118-15.984-8.819c-1.6536-3.3071-5.5119-12.126-5.5119-12.126z" fill="#ccc"/>
<path d="m477.43 120.31-21.496 10.473s4.4095-17.087 9.9213-19.291c5.5118-2.2047 11.575 8.819 11.575 8.819z" fill="#4d4d4d"/>
</g>
<ellipse rx="5.7874" ry="9.0946" transform="scale(-1,1)" cy="175.15" cx="-480.46" stroke-width=".91808" fill="#aef"/>
<path stroke-width="1.0017" d="m355.06 280.72s1.7232 7.5106 3.5625 16.094c4.1153 0.1976 7.75 0.4375 7.75 0.4375s1.9176 15.707 2.4688 18.188c0.22469 1.0111-2.6203 1.433-6.3125 1.625 0.0889 0.60585 0.1909 1.1852 0.25 1.6875 1.1024 9.3702 26.471 42.42 28.125 44.625 1.6536 2.2047-17.094 94.809-17.094 99.219 0 4.4095 7.1595 4.9542 2.75 8.8125s-11.591 20.937-9.9375 27c1.6536 6.063 6.0711 3.312 4.9688 9.375-1.1024 6.063 2.1967 14.335-4.9688 15.438-7.1654 1.1024-36.375 12.131-36.375 9.375 0-2.7559 0.005-14.318 3.3125-17.625 3.3071-3.3071 6.0625-13.25 6.0625-13.25s13.221-17.622 14.875-22.031c1.6536-4.4095-1.1024-27.028 0-31.438 1.1024-4.4095 2.216-25.88 0.5625-29.188-1.6536-3.3071-62.829-2.7559-66.688 0-3.8583 2.7559-5.514 4.3949-7.7188 3.8438-2.2047-0.55118-28.122-4.9569-26.469-10.469 1.6536-5.5118-3.8464-22.602-5.5-27.562-1.6536-4.9607-1.6686-6.0533 9.9062-13.219 11.575-7.1654 46.852-36.926 45.75-42.438-0.28016-1.4008-0.95841-4.2653-1.8125-7.7812-1.872 0.0534-3.3419-0.15444-3.9688-0.78125-2.4803-2.4803-7.4235-17.366-5.2188-18.469 0.54856-0.27428 2.4292-0.51271 4.9688-0.71875-0.707-4.7677-0.9152-8.6901-0.0312-10.281 1.5608-2.8095 11.776-1.5299 14.344 2.75 0.73464 1.2244 1.1885 3.7011 1.5 6.7812 3.0322-0.0973 5.375-0.1875 5.375-0.1875s3.0315 17.386 0 17.938c-0.79233 0.14406-2.4348 0.51727-4.4688 0.96875 0.26705 6.1067 0.71106 11.008 2 11.438 3.3071 1.1024 31.983-1.1164 34.188-2.2188 0.87686-0.43843 1.0503-5.4592 0.84375-11.5-1.9398-0.0363-3.7396-0.0625-4.7188-0.0625-4.4095 0-3.5851-7.173-4.6875-11.031-1.1024-3.8583 0.28395-7.9914 1.9375-9.0938 0.49752-0.33168 2.7415-0.44981 5.5312-0.4375-0.19167-0.95358-0.37774-1.693-0.5625-2.0625-1.6536-3.3071-7.1735-7.1476-4.9688-8.25s10.469-5.5 10.469-5.5z" fill="#2c5aa0"/>
<path stroke-width="1.0017" d="m266.88 464.8s-13.78 44.646-13.228 47.953c0.55119 3.3071 10.473 29.213 4.9607 25.906-5.5118-3.3071-36.929-13.228-41.89-12.677-4.9607 0.55118 0-15.984 3.3071-20.945 3.3071-4.9607 19.291-47.953 20.394-50.158 1.1024-2.2047 26.457 9.9213 26.457 9.9213z" fill="#2c5aa0"/>
<g stroke-width="1.0017" fill="#c83737">
<path d="m234.91 407.48c4.9607 1.1024 57.874 19.291 60.079 23.15 2.2047 3.8583 7.7166 8.819 12.677 6.6142 4.9607-2.2047 17.171-7.8324 31.969 1.6536 21.496 13.78 18.189 41.339 9.3701 47.953-8.819 6.6142-17.087 19.843-20.394 18.189-3.3071-1.6536-3.8583-28.662-3.8583-33.622 0-4.9607-6.6142-10.473-12.677-11.575-6.063-1.1024-13.228 3.8583-13.228 3.8583s3.3071 30.866-1.6536 30.866-18.74-15.433-18.74-20.394c0-4.9607-0.55119-8.819-4.4095-9.3702-3.8583-0.55118-48.504-19.291-47.953-24.252 0.55119-4.9607 8.819-33.071 8.819-33.071z"/>
<path d="m174.83 376.06-4.4095 12.126s-25.906-12.677-30.315-14.331c-4.4095-1.6536-24.803-14.882-33.071-16.536-8.2678-1.6536-12.126 4.9607-12.677-1.6536-0.55118-6.6142 15.433-8.819 23.701-4.9607 8.2678 3.8583 36.929 16.536 40.788 18.189 3.8583 1.6536 15.984 7.1654 15.984 7.1654z"/>
<path d="m168.76 395.35c-2.2047-0.55119-52.363-27.008-55.67-27.008-3.3071 0-6.6142 8.819 0 11.024 6.6142 2.2047 50.709 31.969 52.914 30.866 2.2047-1.1024 2.7559-14.882 2.7559-14.882z"/>
</g>
<g stroke-width="1.0017" fill="#ccc">
<path d="m318.14 465.35c5.5118 2.2047 8.2678 28.662 8.819 32.52 0.55119 3.8583 0.55119 9.3702-3.8583 8.819-4.4095-0.55118-22.047-1.6536-23.15-5.5118-1.1024-3.8583-7.7166-31.418-1.6536-33.071 6.063-1.6536 11.575-7.7166 14.331-4.9607 2.7559 2.7559-1.1024 17.638 0.55119 20.945 1.6536 3.3071 3.8583 9.3701 4.4095 4.9607 0.55118-4.4095 0.55118-23.701 0.55118-23.701z"/>
<ellipse rx="4.4095" transform="scale(-1,1)" ry="5.2363" cy="456.26" cx="-282.31"/>
<path d="m439.95 527.63c-1.1024 9.3702 1.1024 20.394-4.9607 23.701-6.063 3.3071-23.701 4.9607-32.52 2.7559-8.819-2.2047-25.355-9.3702-33.622-8.2678-8.2678 1.1024-34.173 10.473-37.481 4.4095-3.3071-6.063-3.8583-14.331-0.55118-14.331s46.851-0.55119 54.567 1.6536c7.7166 2.2047 43.544 1.1024 47.953-2.2047 4.4095-3.3071 6.6142-7.7166 6.6142-7.7166z"/>
<path d="m257.51 550.23s2.2047 8.819-1.6536 9.9213c-3.8583 1.1024-21.496 3.8583-30.866 2.7559-9.3701-1.1024-34.173-4.4095-33.622-8.2678 0.55118-3.8583-0.55119-13.78 3.8583-13.228 4.4095 0.55118 23.15-2.7559 28.662-2.2047 5.5118 0.55118 14.882 2.2047 20.394 4.9607 5.5118 2.7559 13.228 6.063 13.228 6.063z"/>
<path d="m404.12 519.92s-3.8583 12.677-7.7166 12.677-4.9607-8.819-1.6536-10.473c3.3071-1.6536 9.3701-2.2047 9.3701-2.2047z"/>
<path d="m393.65 515.51c-2.2047 2.7559-6.6142 13.228-8.819 13.228-2.2047 0-3.8583-8.2678-1.1024-9.3701 2.7559-1.1024 9.9213-3.8583 9.9213-3.8583z"/>
<path d="m384.28 513.85c-2.2047 1.6536-1.6536 12.677-6.063 12.677-4.4095 0-5.5118-6.6142-2.7559-8.819 2.7559-2.2047 8.819-3.8583 8.819-3.8583z"/>
</g>
<path stroke-width="1.0017" d="m438.29 524.33s-14.331 12.126-23.701 13.228c-9.3702 1.1024-60.079-3.8583-65.591-3.8583-5.5118 0-18.74 1.1024-15.984 0 2.7559-1.1024 24.803-3.3071 31.418-5.5118 6.6142-2.2047 19.843 3.8583 24.803 3.8583 4.9607 0 12.126-4.4095 14.331-5.5118 2.2047-1.1024 34.725-2.2047 34.725-2.2047z" fill="#c83737"/>
<path stroke-width="1.0017" d="m258.61 539.76s4.4095 11.575-1.1024 9.3702c-5.5118-2.2047-23.15-13.228-27.559-12.677-4.4095 0.55119-30.866 7.1654-31.969 4.9607-1.1024-2.2047 5.5118-9.3702 11.024-8.819 5.5118 0.55118 19.291-0.55119 25.355 1.1024 6.063 1.6536 24.252 6.063 24.252 6.063z" fill="#c83737"/>
<g stroke-width="1.0017" fill="#214478">
<path opacity=".15" d="m449.32 269.13 2.7559 17.087 3.3071 7.7166s0.55119 63.386-1.6536 63.937c-2.2047 0.55118-15.433 2.2047-15.433 2.2047l11.024 89.843h-8.819l-7.1654-88.19s-9.3702 2.2047-13.78-1.6536c-4.4095-3.8583-24.803-12.677-24.803-12.677l1.1024-34.725 25.906-14.882-1.6536-97.56s-12.126-1.6536-12.677-5.5118c-0.55118-3.8583 3.8583-18.189 3.8583-18.189s-7.1654-39.685-1.6536-45.748 11.599-20.911 19.291-17.087c8.5803 4.2656-12.288 20.256-2.2047 28.662 7.813 6.513 23.15-1.6536 27.008 1.6536 3.8583 3.3071 15.984 15.984 11.575 14.882-4.4095-1.1024-21.496-1.1024-27.008 4.4095-5.5119 5.5118-2.7559 20.945-2.7559 20.945s-5.5118 12.677-0.55119 13.228c4.9607 0.55118 5.5119 6.6142 5.5119 6.6142l-8.2678 4.9607s2.7559 58.426 5.5118 58.977c2.7559 0.55119 11.575 1.1024 11.575 1.1024z"/>
<path opacity=".15" d="m270.72 111.5c0 6.6142 3.8583 17.642 0 21.5-3.8583 3.8583-4.9461 36.9-3.8438 39.656 1.1024 2.7559 33.63-8.7958 36.938-4.9375 3.3071 3.8583 13.227 40.764 18.188 42.969 4.9607 2.2047-8.8125 7.1875-8.8125 7.1875s-17.1 8.2473-14.344 6.5938c2.75-1.64 10.46-28.1 7.15-31.96-3.3071-3.8583-4.9596-13.227-12.125-12.125-7.1654 1.1024-22.031 8.8206-22.031 13.781 0 4.9607-14.878 37.485-10.469 41.344 4.4095 3.8583 30.313-8.2705 24.25-1.6562-6.063 6.6142-16.549 32.519-8.2812 38.031 7.274 4.8494 17.521 13.973 12 15.344 17.319 2.377 53.12 0.73958 58.875-0.65625-2.2529 1.0643-30.891 14.565-37.25 15.625-6.0007 1.0001-49.636-8.437-70.031-16.781-11.114 12.802-37.001 43.207-37.438 49.312-0.55119 7.7166-13.787 73.872-11.031 78.281 2.7559 4.4095 36.364 31.969 29.75 31.969-6.6142 0-39.664-13.795-44.625-16-4.9607-2.2047-6.0824-24.249-5.5312-30.312 0.55119-6.063 24.807-56.769 21.5-62.281-3.3071-5.5118 19.307-48.502 22.062-56.219 2.7559-7.7166 3.2872-31.971 0.53125-33.625-2.7559-1.6536-21.485 1.1029-25.344-6.0625-3.8583-7.1654 2.75-19.832 2.75-25.344 0-5.5118-19.298-29.787-23.156-33.094-3.8583-3.3071 0.56573-18.721-3.8438-20.375-4.4095-1.6536-19.305-2.2042-8.2812-6.0625s36.377-28.119 44.094-30.875c7.7166-2.7559 3.3292-9.9375 7.1875-9.9375s61.156-3.2812 61.156-3.2812zm78.28 174.72c-0.0163 0.0979-0.25442 0.17857-0.625 0.28125 0.0588-0.0278 0.625-0.28125 0.625-0.28125z"/>
<path opacity=".15" d="m353.96 211.81s-31.418 6.6142-35.827 7.7166c-4.4095 1.1024-24.252 5.5118-18.74 6.6142 5.5118 1.1024 35.276 7.1654 39.134 6.063 3.8583-1.1024 18.189-20.945 18.189-20.945z"/>
<path opacity=".15" d="m355.62 169.91c3.2144 4.3124 8.3283 13.659 1.6536 15.984-5.894 2.0533-7.1654-7.1654-14.882-7.7166-7.7166-0.55118-19.843 7.7166-20.394 2.2047-0.55119-5.5118 8.819-14.882 15.984-13.78 7.1654 1.1024 13.305-2.5055 17.638 3.3071z"/>
<path opacity=".5" d="m267.43 465.9-6.6142 8.819s-10.473-6.6142-15.433-4.9607c-4.9607 1.6536-15.433 55.118-20.945 55.67-5.5118 0.55119-16.536 3.3071-14.331-2.7559 2.2047-6.063 29.213-71.654 29.213-71.654z"/>
<path opacity=".15" d="m349.55 482.99s-9.3702 2.7559-12.677 1.1024c-3.3071-1.6536-12.126-22.599-18.189-22.599s-35.276 3.8583-46.3-1.1024-44.646-30.315-46.3-25.906c-1.6536 4.4095 39.685 31.418 44.646 32.52 4.9607 1.1024 12.126 14.882 14.331 19.291 2.2047 4.4095 18.74 19.291 22.599 15.433 3.8583-3.8583 11.575-4.9607 11.575-4.9607s1.6536 7.7166 8.2678 7.1654c6.6142-0.55119 22.047-20.945 22.047-20.945z"/>
<path opacity=".15" d="m280.66 443.85s-7.1654-7.7166-17.638-11.575c-10.473-3.8583-33.071-13.78-33.071-13.78l-1.1024 5.5118s33.622 18.74 39.685 19.843c6.063 1.1024 12.126 0 12.126 0z"/>
<path opacity=".15" d="m168.21 402.52c-2.2047-1.1024-54.016-32.52-55.67-30.866-1.6536 1.6536-4.9607 4.4095-0.55119 7.1654s54.567 31.418 54.567 31.418z"/>
<path opacity=".15" d="m172.62 381.02s-22.047-8.2678-27.559-10.473c-5.5118-2.2047-31.418-17.638-39.134-18.189-7.7166-0.55119-22.047-0.55119-18.189 2.2047 3.8583 2.7559 20.394 0.55118 25.355 4.4095 4.9607 3.8583 29.764 18.189 33.622 18.74 3.8583 0.55118 24.803 11.024 24.803 11.024z"/>
<path opacity=".15" d="m227.74 528.74s-13.78 9.3702-16.536 11.024c-2.7559 1.6536 5.5118 20.394 2.7559 19.843-2.7559-0.55119-18.74 0-18.189-4.4095 0.55118-4.4095 1.1024-14.882 3.8583-16.536 2.7559-1.6536 13.78-11.024 13.78-11.024z"/>
<path opacity=".5" d="m276.25 360.07s-30.315 15.984-29.213 20.394c1.1024 4.4095 2.2047 29.764 6.063 30.866 3.8583 1.1024 26.457 14.882 29.213 12.677 2.7559-2.2047 61.733-8.819 68.347-8.2678 6.6142 0.55118 27.008-3.8583 14.331-4.9607s-78.069-1.425-84.882-8.2678c-7.6705-7.7034-3.8583-42.441-3.8583-42.441z"/>
<path opacity=".5" d="m351.76 487.95c-2.2047 12.126 13.78 33.622 6.063 36.378-7.7166 2.7559-25.906 13.78-26.457 7.7166-0.55118-6.063 11.575-35.276 11.575-35.276z"/>
<path opacity=".15" d="m255.3 309.36s24.803 40.236 18.74 46.3c-6.063 6.063-27.559 22.599-28.662 20.394-1.1024-2.2047-8.2678-19.291-4.9607-21.496 3.3071-2.2047 15.984-24.803 14.331-30.866-1.6536-6.063 0.55119-14.331 0.55119-14.331z"/>
<path opacity=".15" d="m367.19 527.63c2.2047 1.1024 46.3 5.5118 47.402 8.2678 1.1024 2.7559 6.6142 17.638 3.3071 18.189-3.3071 0.55118-34.725-6.6142-40.237-7.1654-5.5118-0.55119-45.748 8.819-47.402 3.8583-1.6536-4.9607-2.7559-15.984 0.55119-16.536 3.3071-0.55118 36.378-6.6142 36.378-6.6142z"/>
</g>
<g stroke-width="1.0017" fill="#fff">
<path opacity=".7" d="m475.77 109.84s-9.9213-2.2047-18.189 1.1024c-8.2678 3.3071-15.433 0.55118-8.819-3.8583 6.6142-4.4095 17.638-8.819 23.15-4.9607 5.5118 3.8583 7.7166 8.2678 7.7166 8.2678z"/>
<path opacity=".7" d="m444.36 180.39c4.4095 3.8583 7.1654 10.473 1.1024 9.3702-6.063-1.1024-11.575-3.3071-11.575-3.3071z"/>
<path opacity=".7" d="m443.81 205.19 2.7559 59.528-6.063 1.1024s-3.3071-56.221-2.2047-58.426c1.1024-2.2047 5.5118-2.2047 5.5118-2.2047z"/>
<path opacity=".7" d="m455.93 371.65s7.1654 60.63 4.4095 61.182c-2.7559 0.55119-6.063-4.4095-6.6142-10.473-0.55119-6.063-6.063-50.709-3.8583-52.363 2.2047-1.6536 6.063 1.6536 6.063 1.6536z"/>
<path opacity=".7" d="m326.95 438.34c8.2678 5.5118 15.984 10.473 15.984 17.087 0 6.6142 12.677 13.228 11.024 8.819-1.6536-4.4095-2.7559-20.945-10.473-23.701-7.7166-2.7559-7.7166-7.1654-12.677-5.5118-4.9607 1.6536-4.9607 6.063-4.9607 6.063z"/>
<path opacity=".7" d="m292.78 435.03c-2.2047-2.2047-59.528-23.15-55.118-24.803 4.4095-1.6536 49.607 17.087 54.016 19.291 4.4095 2.2047 1.1024 5.5118 1.1024 5.5118z"/>
<path opacity=".7" d="m482.94 168.81c1.6536 7.1654 3.2535 8.9762 0 9.0946-1.5687 0.0571-2.7674-2.315-2.4803-3.8583 0.40464-2.1751 2.4803-5.2362 2.4803-5.2362z"/>
</g>
<g stroke="#000" fill="none">
<path d="m225.54 441.84s37.711 20.643 43.557 23.371c5.8462 2.7282 17.332 3.8052 27.477-3.5077 3.062-2.2072 12.582-4.1735 17.331 0.83483 1.4903 1.5717 0.47923 3.0391 0.9875 4.8165 1.4406 5.0378 2.5094 7.524 2.4192 16.369-0.0455 4.4552-1.0115 10.389-2.2301 14.669-0.56073 1.9696-0.38398 5.0129-0.38398 5.0129l7.7949 2.1436 10.821-1.4978 1.718-3.6496s15.857-11.215 18.251-22.525c2.3944-11.31 4.1555-27.414-10.523-38.975-9.7192-7.6546-17.481-7.0008-26.589-6.4838-5.4977 0.31201-15.503 5.7044-15.503 5.7044s-26.245 9.707-35.308 5.2339c-15.999-7.8965-36.227-18.048-36.227-18.048" stroke-width="2.0034"/>
<g stroke-linejoin="round">
<ellipse rx="3.8" ry="4.9693" transform="scale(-1,1)" cy="455.17" cx="-282.45" stroke-width="1.0017"/>
<g stroke-width="1.0017">
<path d="m231.87 428.18s21.047 10.797 33.713 16.759c5.1119 2.4061 18.318-1.9487 18.318-1.9487"/>
<path d="m304.75 436.37c11.887-5.0667 25.295-0.98023 31.764 7.7949 14.152 19.195 4.8718 46.77-10.328 55.929"/>
<path d="m315.28 464.62 7.4052 1.9487c5.2983 2.162 3.608 34.153 2.3385 33.518"/>
<path d="m322.1 467.94c2.8753 11.159 1.6336 26.187 0.38975 36.831"/>
</g>
<path d="m301.05 437.54s-1.7538-5.2616-5.0667-7.4052c-1.3492-0.87298-8.5238-3.8872-12.862-5.6513l-40.729-16.564s-7.4052-1.1692-8.3796-0.58462m-4.5098 16.08s29.454 15.49 32.377 16.269c2.9231 0.7795 4.9177-0.6519 7.0154 0.38975 1.5271 0.75834 3.3128 3.8975 3.3128 3.8975" stroke-width="2.0034"/>
<path d="m293.06 439.49s-0.70716-3.6725-2.5333-5.6513c-3.2274-3.4972-8.0308-4.6111-12.277-6.4308l-42.933-18.399" stroke-width="1.0017"/>
<path d="m314.89 502.23h-6.0411l-9.159-3.5077-0.58462-2.7282s-12.026-5.1102-15.785-12.277c-3.7584-7.1668-5.4565-16.759-5.4565-16.759" stroke-width="2.0034"/>
<path d="m306.7 458.78 1.7539 4.8718 4.0923 1.3641c0.34885 1.7662 1.7005 3.9196 1.608 6.0358-0.28875 6.6098 0.31854 13.912 2.2894 21.052" stroke-width="2.0034"/>
<g stroke-width="1.0017">
<path d="m309.63 465.01s-7.3241-0.78916-7.0154 2.1436l0.38974 3.7026c-0.30183 9.0864 2.4076 16.521 5.2616 24.554 0.43765 1.2318 0.19487 4.677 0.19487 4.677"/>
<path d="m300.47 464.04s-4.6062 1.7371-4.677 2.7282c-0.19487 2.7282 0.19488 20.072 3.118 27.282"/>
<path d="m301.25 464.23-1.7539-5.4565"/>
</g>
<path d="m352.5 119.31c9.3539 12.472 23.151 71.429 22.995 108.35-0.0533 12.64-3.1802 27.805-8.1847 37.026-7.8648 14.49-12.082 20.657-38.585 26.113-26.503 5.4564-100.16-21.436-106.01-25.334-5.8462-3.8975-10.913-15.59-10.913-15.59s-19.488-4.1571-24.944-13.641c-7.6739-13.339 4.1111-23.479 7.0154-18.708-8.3458-12.929-16.819-25.604-24.164-40.534l-7.7949-0.38974c-1.5869-3.8882 2.4723-9.6584 7.0154-15.59 0 0-27.282 6.236-24.554 2.3385 11.058-12.633 23.384-22.411 38.585-25.723 0 0-14.031-1.559-9.7437-3.8975 5.0442-8.0772 16.125-10.118 26.113-13.251 0 0-27.672 3.8975-24.164 1.559 15.073-7.5413 25.816-11.488 40.534-13.251 0 0-18.318-0.38975-14.031-1.9487 30.084-9.7187 35.535-10.828 48.329-10.523 0 0-18.318-3.8975-13.251-5.4565 0 0 36.029-5.8093 53.785-3.118 7.6822 1.1645 21.826 8.1847 21.826 8.1847-0.38975-3.118-11.692-11.303-8.5744-10.523 7.5351-0.11963 15.07 4.1544 22.605 11.303 0 0-3.118-8.1847-0.38974-7.0154 0 0 12.552 6.5214 17.149 11.692 4.4782 5.038 9.3539 17.928 9.3539 17.928z" stroke-width="2.0034"/>
<g stroke-width="1.0017">
<path d="m349.38 115.8s-22.682 13.77-35.467 15.59c-13.752 1.9578-41.313-5.4564-41.313-5.4564l0.38975-3.118c-17.424-0.11989-26.082 4.7688-36.636 8.5744l5.4565 1.1692c-15.684 3.7109-24.122 11.77-35.077 18.318l5.8462 0.77949s-14.81 31.569-9.3539 47.939c5.4564 16.369 21.436 24.944 21.436 24.944l-4.677 3.118 9.3539 8.5744-5.0667 0.38974 4.2872 10.523-12.862 0.38975-4.677-13.641-0.77949 2.7282s-6.9492-13.998-8.413-14.944c-3.7637-2.433-6.1414-3.8306-6.1414-3.8306"/>
<path d="m205.95 235.84c-0.21738 0.95186-12.437-8.9296-14.031-10.523"/>
<path d="m195.77 228.89c-0.9003 2.7266-1.4271 5.5875 1.378 9.6457"/>
<path d="m352.94 168.81s0.94608-6.7359-0.38974-8.5744c-6.861-9.4431-25.621-3.4788-24.944-2.3385-3.5077 0.77949-5.0667 8.1847-1.1692 9.3539 11.439-3.3528 19.15-1.1626 26.503 1.559z"/>
<path d="m299.15 168.42c6.6257 1.9487 4.9381-6.4536-0.77949-11.303-9.7803-8.2946-24.25 6.3687-29.231 10.913-3.5077 7.4052 0.9755 11.507 5.4564 7.0154 9.0573-9.079 15.595-7.8087 24.554-6.6257z"/>
<path d="m307.73 187.9c-16.587-7.8403-26.063 10.233-29.231 17.539v3.118s8.8718 1.4098 13.251 0.7795c5.3284-0.7669 15.2-5.4565 15.2-5.4565s-1.303-0.66533-3.5077-0.38974c1.378-7.1654 1.8623-13.157-1.1692-14.81 2.2047-0.55119 5.4564-0.77949 5.4564-0.77949z"/>
<path d="m306.17 185.18s-5.8337-8.1339-17.539-6.236c-11.477 1.8611-13.641 17.928-13.641 17.928"/>
<path d="m306.95 204.66c-2.142 6.3025-3.967 12.922-10.133 15.2"/>
</g>
</g>
</g>
<ellipse rx="6.6297" ry="8.4508" transform="scale(-1,1)" cy="194.48" cx="-297.62" stroke-width="1.2811"/>
<ellipse rx="2.3581" ry="2.663" transform="scale(-1,1)" cy="191.16" cx="-299.96" stroke-width=".42889" fill="#fff"/>
<g stroke="#000" stroke-width="1.0017" fill="none">
<path d="m321.51 175.15c-2.3498 8.6855 7.312 33.545 20.669 34.725 5.0096 0.44239 12.402-1.6536 11.299 2.4803-1.1024 4.1339-3.5288 16.436-16.26 15.709-19.291-1.1024-19.499-6.2533-23.15-5.7874-5.7669 0.7358 0.55119 3.5827-0.82677 5.7874s-11.702 1.6186-14.331-0.55119c-4.502-3.7155 4.7959-13.277 7.7166-12.953"/>
<path stroke-linejoin="round" d="m349.82 192.39c-0.97359-3.4886-2.5388-7.6826-5.8462-9.159-5.1697-2.3077-13.586-1.9324-16.759 2.7559-2.8663 4.2343 2.4815 14.885 3.3128 14.978 5.6513-0.58462 16.759 1.1692 21.631 2.1436l-2.5334-2.5334s0.92843-5.5561 0.19487-8.1847z"/>
<path stroke-linejoin="round" d="m325.27 184.59s-0.69239-7.2088 7.6001-8.7416c5.4687-1.0109 12.552 0.48727 16.222 5.3284 1.5096 1.9915 1.5117 6.9209 1.5117 6.9209"/>
</g>
<ellipse rx="6.2872" ry="7.6491" transform="scale(-1,1)" cy="189.91" cx="-342.62" stroke-width="1.1869"/>
<ellipse rx="2.2363" ry="2.4105" transform="scale(-1,1)" cy="186.92" cx="-344.84" stroke-width=".39738" fill="#fff"/>
<g stroke-linejoin="round" stroke="#000" fill="none">
<g stroke-width="1.0017">
<path d="m342.73 247.08-1.378-5.5118v3.5827s-19.707 4.6525-29.764 5.2363c-9.4621 0.54921-28.386-1.6536-28.386-1.6536l0.82678-3.8583c-3.6667 3.4069-5.3954 8.7516-6.8898 14.331"/>
<path d="m330.88 248.73c4.0798 1.7076 6.7477 9.5122 4.6851 13.228-0.80248 1.4458-6.3386 0-10.473 0.55119-4.1339 0.55118-9.3702 3.5827-9.3702 3.5827"/>
<path d="m347.14 225.03c9.0299 6.2305 13.26 13.528 15.709 21.221"/>
<path d="m297.54 222.83s-1.085 6.2836-3.5827 7.441c-15.8 7.3211-23.883 24.755-22.323 25.079"/>
</g>
<path d="m471.76 293.92s0.38975-10.523-3.5077-14.031c-3.8975-3.5077-12.862-12.862-18.708-13.641-5.8462-0.77949-9.7437 0-14.031 2.7282-4.2872 2.7282-11.692 8.5744-11.303 16.369 0.2926 5.8519 9.3539 10.523 9.3539 10.523s-6.8744 6.6444-5.8462 10.523c2.8035 10.575 14.421 10.913 14.421 10.913s-9.5146 1.1819-8.5744 12.082c0.80996 9.3907 8.5744 13.251 8.5744 13.251s-6.7673 0.78271-6.6257 3.8975c0.38975 8.5744 3.1565 11.21 7.7949 13.641 6.6985 3.5114 21.042 0.85919 22.605-1.9487 1.9937-3.5802 2.2781-16.944-1.1692-16.369 0 0 9.7437-1.559 10.913-3.8975 1.1692-2.3385 2.3385-16.759 0.77949-17.539-1.559-0.7795-3.8975-3.5077-3.8975-3.5077s5.8462-3.5077 6.236-6.6257c0.38975-3.118-2.7282-10.133-2.7282-12.082 0-1.9487-4.2872-4.2872-4.2872-4.2872z" stroke-width="2.0034"/>
<path d="m428.5 314.96c5.3276 8.075 6.6257 23.385 0 26.113-6.6257 2.7282-15.2 1.559-19.487-0.77949-4.2872-2.3385-12.472-30.79-11.303-34.687 1.1692-3.8975 8.1847-16.369 12.082-18.708 3.8975-2.3385 13.251 0 13.251 0 0.63149 9.7213-0.28333 19.362 5.4564 28.062z" stroke-width="2.0034"/>
<g stroke-width="1.0017">
<path d="m435.51 294.69s12.866-5.671 19.487-5.8462c7.8019-0.2064 15.2 4.677 15.2 4.677"/>
<path d="m444.09 316.91s10.913-1.559 13.641-1.559c2.7282 0 12.862 1.559 12.862 1.559"/>
<path d="m444.48 342.63s6.6257 1.1692 9.3539 1.1692 9.3539-0.7795 9.3539-0.7795"/>
</g>
<path d="m455.98 362.19 8.3537 85.786c-6.7202 6.3893-20.11 5.0265-26.188 1.9487l-9.134-110m-5.1953-53.107-9.1224-85.412s-2.8276-1.4661-4.9053-2.3385c-3.7128-1.559-5.127-11.98-4.1062-13.393 1.559-2.1575 3.2794-4.7715 3.2794-4.7715s-2.2912-25.353-3.4604-33.538c-1.1692-8.1847 3.8975-29.621 18.318-32.739 10.257-2.2178 23.09-7.1296 23.09-7.1296s1.9307-5.3117 15.437-6.3501c14.348-1.1031 21.221 13.198 22.274 24.782 1.1692 12.862-2.2212 32.488-14.24 33.518-12.246 1.0499-16.645-3.118-16.645-3.118s-4.1926-2.7282-8.0901 0.77949-3.118 13.641-3.118 13.641l0.96052 7.8814s4.6574 2.3858 5.8266 3.9448 2.5668 11.653 0.2283 13.602c-2.3385 1.9487-5.5706 3.118-5.5706 3.118l4.7847 66.134" stroke-width="2.0034"/>
<ellipse rx="11.575" ry="21.22" transform="matrix(-.99875 .050078 .050080 .99875 0 0)" cy="154.08" cx="-461.47" stroke-width="1.0017"/>
<g stroke-width="1.0017">
<path d="m459.51 104.05c-9.3702 6.3386-9.168 19.461-8.5434 29.764"/>
<path d="m446.56 110.66c-5.1312 9.5145-4.437 30.486 3.5827 40.788"/>
<path d="m444.08 199.13c-8.7803 2.2385-18.235 3.3524-29.213 1.9292"/>
<path d="m441.05 179.29c-9.6457 5.3938-21.496 4.4807-28.937 2.2047"/>
<path d="m479.17 120.87-21.826 11.692"/>
<path d="m463.92 447.44c-9.746 4.2447-18.775 1.1579-25.63-1.1024"/>
<path d="m463.37 444.68c-9.746 4.2447-18.775 1.1579-25.63-1.1024"/>
<path d="m462.82 441.37c-9.746 4.2447-18.775 1.1579-25.63-1.1024"/>
<path d="m462.82 437.79c-9.746 4.2447-18.775 1.1579-25.63-1.1024"/>
<path d="m462.27 434.48c-9.746 4.2447-18.775 1.1579-25.63-1.1024"/>
</g>
<g stroke-width="2.0034">
<path d="m480.18 162.2s8.2678 15.433 3.8583 20.394c-4.4095 4.9607-8.2678-0.55118-7.7166-3.3071 0.55119-2.7559 3.8583-17.087 3.8583-17.087z"/>
<path d="m365.75 266.63s18.318 36.246 21.826 37.805c3.5077 1.559 9.3539 2.7282 9.3539 2.7282m-1.4602 43.271c0.0122 1.1649-2.2574 3.2516-3.7875 3.2551l-4.7242-0.1378 5.0667 6.236s-18.869 97.818-18.09 100.55c0.77949 2.7282 4.677 8.1847 2.3385 10.523-2.3385 2.3385-7.0154 4.2872-7.0154 4.2872s-1.9487 25.723-0.7795 28.062c1.1692 2.3385 3.8502 2.8147 4.677 5.8462l-5.4564 2.3385 4.2872 0.38975c0.27559 3.0315-3.8975 4.677-3.8975 4.677l6.7439 0.27559 2.5564-2.8817 4.6851 1.1024 0.2756 3.0315 2.2047 0.27559 3.0315-3.0315 3.8583 1.378-0.27559 3.5827 2.7559 0.82677 2.4803-1.9291 5.5118 1.6536 1.378 3.0315s23.43 2.5044 26.181 2.3425c2.3425-0.1378 9.6457-1.7914 10.473 0.68898 0.82678 2.4803-2.2047 18.74-3.0315 20.669-0.82678 1.9292-13.504 9.3702-17.914 9.0946-4.4095-0.27559-34.449-6.8898-41.614-7.441-7.1654-0.55119-27.559 2.4803-32.796 2.2047-5.2363-0.27559-12.402-0.27559-14.331-1.1024-1.9292-0.82678-2.7559-7.441-2.4803-9.9213 0.27559-2.4803 4.1339-9.3702 4.1339-9.3702l-2.7559-1.6536s-1.378-6.8898 1.378-7.9922c2.7559-1.1024-0.55118-2.4803-0.55118-4.6851 1.378-2.2047 8.819-4.9607 8.819-4.9607l-3.3071-4.1339 2.7559-9.0946"/>
<path d="m352.86 450.74s2.4803-28.11 1.6536-30.315c-0.82678-2.2047 0.82678-4.4095-2.7559-3.5827-3.5827 0.82677-37.756 3.8583-42.441 3.8583-4.6851 0-20.394-0.55118-22.047-0.27559-1.6536 0.27559-3.8583 3.5827-3.8583 3.5827"/>
<path d="m267.43 463.7s-0.40359 9.2894-2.1574 10.069l-2.1379 1.9626s-3.6969 29.032-5.0748 30.961c-1.378 1.9292-3.5827 5.2363-3.5827 5.2363s5.5118 5.5118 4.6851 7.1654c-0.82678 1.6536-5.7874 0.82678-5.7874 0.82678v2.2047s5.2362 1.1024 4.6851 2.7559c-0.55119 1.6536 4.1339 14.882 4.1339 14.882l-3.3071 0.27559 1.1024 1.1024 0.82677 6.8898-1.1024 0.82678s-0.27559 8.819-3.0315 10.197-18.189 5.2363-29.764 4.9607c-11.575-0.27559-32.796-7.9922-33.071-9.0946-0.27559-1.1024 1.1024-14.055 3.5827-15.709 2.4803-1.6536 8.5434-3.5827 8.5434-3.5827l7.441-8.2678-5.2363 0.55118s23.425-52.087 26.732-55.119c1.873-1.7169 0-8.819 1.1024-9.0946s3.5827-12.953 3.5827-12.953"/>
<path d="m430.58 365.31s-10.296-1.2539-14.606-3.8583c-2.5598-1.5468-6.063-6.6142-6.063-6.6142l-18.465-5.2363c-1.7067-7.8309-4.4211-31.31 5.8755-42.24"/>
<path d="m225.05 266.63s-41.313 65.867-39.364 67.816c1.9487 1.9487 8.1847 4.677 8.1847 4.677"/>
<path d="m252.54 411.33s1.378-4.6851 1.378-8.5434-7.441-18.189-7.441-18.189l-7.4-38.071c-14.035-5.7584-28.245-10.645-43.309-11.26 0 0-9.0658 20.397-15.709 32.52-7.6668 13.991-13.504 40.788-12.126 46.3 1.378 5.5118 4.8243 9.2696 11.299 15.709 0.84929 0.84459 6.063 1.6536 6.063 1.6536s4.4095 7.441 6.6142 7.441 9.0946-0.2756 9.0946-0.2756 5.0717 3.0362 6.3386 4.1339c6.3825 5.53 18.943 5.2525 18.189-2.2047-0.70535-6.9768 8.819-33.622 8.819-33.622"/>
</g>
<path d="m390.84 349.15c0.3738 2.029 0.70943 3.9777 2.4359 2.7282" stroke-width="1.0017"/>
<path d="m379.87 298.62 3.1693 5.2363-1.5158 0.82677s1.378 7.0276 3.3071 19.016c1.9292 11.988 1.0453 29.689 1.0453 29.689" stroke-width="1.0017"/>
<path d="m366.61 297.53c0.1404 1.2644 1.6988 14.371 1.5443 15.607-0.15444 1.2362 0 1.8543-1.6988 2.1634-1.6988 0.30904-16.215 1.5452-18.378 1.0817-2.1621-0.46356-2.9342-1.8543-3.0887-3.0905-0.15444-1.2362-2.0076-12.362-2.3165-13.598-0.30887-1.2362 0.15443-2.936 1.6988-2.936 1.5443 0 17.451-0.77262 18.686-0.61809 1.2355 0.15451 3.3975-0.00001 3.552 1.3907z" stroke-width=".50086"/>
<path d="m362.53 300.73c0.0894 0.80242 1.0811 9.1202 0.98284 9.9047-0.0983 0.78453 0 1.1768-1.0811 1.3729-1.0811 0.19613-10.32 0.98066-11.696 0.68646-1.376-0.29419-1.8674-1.1768-1.9657-1.9613-0.0983-0.78453-1.2777-7.8453-1.4743-8.6299-0.19658-0.78454 0.0983-1.8633 1.0811-1.8633 0.98284 0 11.106-0.49033 11.892-0.39226 0.78627 0.0981 2.1623-0.00001 2.2605 0.88259z" stroke-width="1.0017"/>
<path d="m319.06 301.39c0.12618 1.2644 1.5408 14.371 1.3619 15.607-0.17898 1.2362-0.0283 1.8543-1.7938 2.1634-1.7654 0.30904-16.83 1.5452-19.064 1.0817-2.2338-0.46356-3.0128-1.8543-3.154-3.0905-0.14116-1.2362-1.8917-12.362-2.1929-13.598-0.30123-1.2362 0.20497-2.936 1.8056-2.936s18.099-0.77262 19.377-0.61809c1.2781 0.15452 3.5214-0.00001 3.6601 1.3907z" stroke-width=".50086"/>
<g stroke-width="1.0017">
<path d="m314.78 304.59c0.0803 0.80242 0.98099 9.1202 0.86712 9.9047-0.11391 0.78453-0.018 1.1768-1.1416 1.3729-1.1236 0.19613-10.712 0.98066-12.133 0.68646-1.4217-0.29419-1.9176-1.1768-2.0074-1.9613-0.0899-0.78453-1.2043-7.8453-1.396-8.6299-0.19176-0.78454 0.1304-1.8633 1.1491-1.8633s11.519-0.49033 12.333-0.39226c0.81347 0.0981 2.2412-0.00001 2.3296 0.88259z"/>
<path d="m355.62 280.66c1.6637 1.4557 3.702 7.0409 5.3928 15.458m2.6865 19.419c0.21498 2.2336 0.34712 3.8976 0.46853 6.1064 0.2345 4.2665 6.0493 11.408 6.8471 12.801 6.5601 11.454 17.196 26.363 18.95 26.168 1.7539-0.19487-0.97437-2.5334-0.97437-2.5334"/>
<path d="m342.36 287.29c1.3872 1.3752 2.4929 4.2075 3.7195 9.08m3.8325 20.059c0.76045 5.5595 0.95379 9.1879 0.63271 9.8354-0.9038 1.8228-34.168 2.3781-34.103 0.97436 0.10771-2.3158-0.0117-4.1654-0.1398-7.6301m-2.0136-19.834c-0.77108-3.9095-1.5351-6.301-2.913-9.1716"/>
<path d="m294.62 287.87c2.0638 0.63503 3.3343 5.3075 4.2085 12.47m1.269 20.049c0.0908 5.971-0.1361 9.5616-0.60569 10.938-2.1884 6.4154-52.271 53.597-54.565 44.041"/>
<path d="m255.26 326.07c0.97436-5.0667-1.7539-19.098-3.5077-20.657-1.7539-1.559-1.9487 6.236-0.97437 8.9642 0.97437 2.7282 3.3128 7.9898 2.1436 8.5744-1.1692 0.58462-4.677-4.2872-5.0667-5.6513-0.38975-1.3641-0.97437-1.3641 0.19487 1.559s3.7026 8.1847 2.9231 8.7693c-0.77949 0.58462 0.97437 3.3128 0.97437 4.0923 0 0.77949-3.291 13.584-4.2872 16.174-0.97437 2.5334-7.7949 1.3641-7.7949 1.3641"/>
<path d="m238.3 346.14c0.77949 0.19487 9.3539 1.1692 7.7949 1.9487-1.559 0.77949-4.677 0.38975-4.677 0.38975"/>
<path d="m195.82 335.23s-8.9642-1.9487-8.1847-0.77949c0.77949 1.1692 4.677 2.5334 4.677 2.5334"/>
<path d="m247.07 339.71c-17.29-7.9769-34.197-17.259-53.98-16.759"/>
<path d="m354.39 345.04c-12.776 5.8972-31.355 0.16271-47.191-0.0747l-2.57-1.6098s0.50389 31.877 2.9842 34.909c7.1439 8.7314 14.042 9.8444 15.327 10.166 1.285 0.32196 17.026 0.64392 21.845-2.2538 4.8188-2.8977 2.4559 1.2902 10.508-7.9126 3.8583-4.4095 3.6267-35.553 3.6267-35.553z"/>
<path d="m342.54 352.05c-0.32126 7.0832-0.96376 27.045-2.57 30.587"/>
<path d="m333.87 352.37c-0.32127 7.0832-0.96377 27.045-2.57 30.587"/>
</g>
<path d="m170.53 395.11s-55.002-28.699-58.509-27.92c-3.5077 0.77949-3.118 5.8462-1.1692 9.3539 1.9487 3.5077 56.124 31.959 56.124 31.959" stroke-width="2.0034"/>
<path d="m177.03 375.23s-13.228-7.441-17.914-8.2678c-4.6851-0.82677-13.829-1.2813-22.323-4.4095-8.4943-3.1281-17.362-12.402-25.63-13.228-8.2678-0.82678-20.945 1.378-20.945 1.378s-1.378 5.7874 3.5827 6.6142c4.9607 0.82678 8.5434-2.2047 17.087 0.55119 2.5832 0.83329 13.404 10.66 20.945 14.606 8.4211 4.4074 23.425 7.9922 26.732 9.9213 3.3071 1.9292 12.677 7.9922 12.677 7.9922" stroke-width="2.0034"/>
<g stroke-width="1.0017">
<path d="m174.55 377.71s-13.291-7.9834-15.158-8.5434c-5.5118-1.6536-22.599-3.8583-29.213-6.6142-3.6424-1.5176-14.606-9.6457-19.016-11.299"/>
<path d="m169.04 397.83-55.67-27.56"/>
<path d="m371.6 516.61s-2.7559 8.819-7.9922 9.6457c-5.2362 0.82678-31.142 4.4095-31.142 4.4095"/>
<path d="m332.19 521.57c1.378-0.27559 10.473-2.4803 7.1654-3.5827-3.3071-1.1024-4.1339-1.1024-4.1339-1.1024"/>
<path d="m436.09 529.01c-10.197 6.063-24.528 10.473-30.315 9.9213-5.7874-0.55119-56.772-4.9607-60.906-4.9607-4.1339 0-12.677 1.378-12.677 1.378"/>
<path d="m402.74 523.78s-3.0315 6.6142-5.7874 8.5434c-2.7559 1.9291-7.9922 0.27559-6.6142-1.6536s3.7205-9.3701 3.7205-9.3701"/>
<path d="m390.89 520.19s-1.815 4.5571-3.7441 7.313c-1.9292 2.7559-5.9016 1.506-5.3504-0.69877 0.55119-2.2047 2.7559-7.9922 2.7559-7.9922"/>
<path d="m382.07 518.4c-0.0912-0.0228-1.0887 0.7348-2.3662 5.0316-1.3984 4.7033-9.0946 3.5827-7.7166 0.27559s3.0552-6.9607 3.0552-6.9607"/>
<path d="m255.59 518.43c-4.8718-3.5077-7.0154-3.5077-6.0411-1.9487 0.97436 1.559 3.118 5.0667 3.118 5.0667"/>
<path d="m259.09 541.82c0 2.7282-0.38975 8.1847-3.5077 7.6001-3.118-0.58462-16.347-12.308-22.995-12.862-14.031-1.1692-24.562 5.8324-28.654 5.2477-4.0923-0.58462-4.4821-1.1692-4.4821-1.1692"/>
<path d="m248.57 536.75c-2.1358-0.77664-12.201-4.9617-19.139-5.8796-6.8857-0.9109-12.497 2.2923-13.641 2.5333-3.9252 0.82677-2.1436-1.9487-1.3641-2.3385 0.77949-0.38974 9.2343-4.3274 14.031-3.7026 9.1496 1.1918 18.896 4.9272 20.308 6.2694 3.8975 3.7026 2.0331 3.9282-0.19487 3.118z"/>
<path d="m249.15 533.83c3.0878 1.2085 6.333 2.8894 9.9385 5.6513"/>
<path d="m222.09 528.17c-4.1938-0.68785-7.2805-1.1381-8.2597-0.6319"/>
</g>
</g>
</g>
</g>
</svg>
