<svg xmlns="http://www.w3.org/2000/svg" height="24" width="24" version="1.1" viewBox="0 0 24 24"><path fill="#fff" d="m0 0v24h24v-24h-24zm18.862 9.237c0.208 4.617-3.235 9.765-9.33 9.765-1.854 0-3.579-0.543-5.032-1.475 1.742 0.205 3.48-0.278 4.86-1.359-1.437-0.027-2.649-0.976-3.066-2.28 0.515 0.098 1.021 0.069 1.482-0.056-1.579-0.317-2.668-1.739-2.633-3.26 0.442 0.246 0.949 0.394 1.486 0.411-1.461-0.977-1.875-2.907-1.016-4.383 1.619 1.986 4.038 3.293 6.766 3.43-0.479-2.053 1.079-4.03 3.198-4.03 0.944 0 1.797 0.398 2.396 1.037 0.748-0.147 1.451-0.42 2.085-0.796-0.245 0.767-0.766 1.41-1.443 1.816 0.664-0.08 1.297-0.256 1.885-0.517-0.44 0.656-0.997 1.234-1.638 1.697z"/></svg>
